#VRML V2.0 utf8
# 3D model generated by easyeda2kicad.py (https://github.com/uPesy/easyeda2kicad.py)

Shape{
    appearance Appearance {
        material  Material 	{
            diffuseColor 0.25098039215686274 0.25098039215686274 0.25098039215686274
            specularColor 0.12549019607843137 0.12549019607843137 0.12549019607843137
            ambientIntensity 0.251
            transparency 0.0
            shininess 0.5
        }
    }
    geometry IndexedFaceSet {
        ccw TRUE
        solid FALSE
        coord DEF co Coordinate {
            point [
                -0.6594 1.5161 0.0039, -0.6693 1.5161 0.0039, -0.6693 1.5555 0.0039, 0.6693 1.5555 0.0039, 0.6693 1.5161 0.0039, 0.6594 1.5161 0.0039, 0.6594 1.3783 0.0039, -0.6594 1.3783 0.0039, -0.9646 1.5555 0.0039, -0.8307 1.5555 0.0039, -0.8307 1.211 0.0039, -0.7874 1.211 0.0039, -0.7874 0.2976 0.0039, -0.9646 0.2976 0.0039
            ]
        }
        coordIndex [
            0,1,2,-1,3,4,5,-1,6,7,5,-1,5,7,0,-1,5,0,3,-1,3,0,2,-1,8,9,10,-1,11,12,10,-1,10,12,13,-1,10,13,8,-1,
        ]
    }
}
Shape{
    appearance Appearance {
        material  Material 	{
            diffuseColor 1.0 1.0 1.0
            specularColor 0.5019607843137255 0.5019607843137255 0.5019607843137255
            ambientIntensity 1.0
            transparency 0.0
            shininess 0.5
        }
    }
    geometry IndexedFaceSet {
        ccw TRUE
        solid FALSE
        coord DEF co Coordinate {
            point [
                -0.6594 1.3783 0.0039, 0.6594 1.3783 0.0039, -0.6594 1.3783 0.0, 0.6594 1.3783 0.0, -0.6693 1.5161 0.0039, -0.6693 1.5161 0.0, -0.6693 1.5555 0.0039, -0.6693 1.6047 0.0, -0.6693 1.5555 0.1142, -0.6693 1.6047 0.1142, -0.8307 1.211 0.0, -0.8307 1.211 0.0039, -0.8307 1.5555 0.0039, -0.8307 1.5555 0.1142, -0.8307 1.6047 0.1142, -0.8307 1.6047 0.0
            ]
        }
        coordIndex [
            0,1,2,-1,2,1,3,-1,4,5,6,-1,6,5,7,-1,6,7,8,-1,8,7,9,-1,10,11,12,-1,13,14,12,-1,12,14,15,-1,12,15,10,-1,
        ]
    }
}
Shape{
    appearance Appearance {
        material  Material 	{
            diffuseColor 0.25098039215686274 0.25098039215686274 0.25098039215686274
            specularColor 0.12549019607843137 0.12549019607843137 0.12549019607843137
            ambientIntensity 0.251
            transparency 0.0
            shininess 0.5
        }
    }
    geometry IndexedFaceSet {
        ccw TRUE
        solid FALSE
        coord DEF co Coordinate {
            point [
                -0.3406 -0.728 0.0039, -0.3307 -0.728 0.0039, -0.3307 -0.7673 0.0039, -0.8307 -0.728 0.0039, -0.8307 -0.7673 0.0039, -0.8406 -0.728 0.0039, -0.9646 -0.7673 0.0039, -0.8406 -0.5902 0.0039, -0.9646 -0.2993 0.0039, -0.6594 -0.5902 0.0039, -0.6693 -0.7673 0.0039, -0.6693 -0.728 0.0039, -0.6594 -0.728 0.0039, -0.1693 -0.7673 0.0039, -0.1693 -0.728 0.0039, -0.0561 -0.7673 0.0039, -0.1594 -0.728 0.0039, -0.0561 -0.2993 0.0039, -0.1594 -0.5902 0.0039, -0.3406 -0.5902 0.0039, 0.6594 -0.728 0.0039, 0.6693 -0.728 0.0039, 0.6693 -0.7673 0.0039, 0.9646 -0.7673 0.0039, 0.8307 -0.7673 0.0039, 0.8406 -0.728 0.0039, 0.8307 -0.728 0.0039, 0.3307 -0.7673 0.0039, 0.3307 -0.728 0.0039, 0.3406 -0.728 0.0039, 0.9646 -0.2993 0.0039, 0.8406 -0.5902 0.0039, 0.6594 -0.5902 0.0039, 0.3406 -0.5902 0.0039, 0.0255 -0.2993 0.0039, 0.0287 -0.2998 0.0039, 0.1594 -0.5902 0.0039, 0.0308 -0.2998 0.0039, 0.0355 -0.2993 0.0039, -0.0561 -0.0587 0.0039, -0.0484 -0.2902 0.0039, -0.0484 -0.2989 0.0039, -0.0062 -0.2989 0.0039, 0.7874 0.1362 0.0039, 0.9646 0.1362 0.0039, 0.7874 -0.0587 0.0039, 0.0092 -0.2948 0.0039, 0.0092 -0.2861 0.0039, -0.0062 -0.2201 0.0039, 0.1693 -0.728 0.0039, 0.1693 -0.7673 0.0039, 0.1594 -0.728 0.0039, 0.0176 -0.2982 0.0039, -0.0168 -0.2288 0.0039, -0.0168 -0.2547 0.0039, -0.0465 -0.2288 0.0039, -0.0446 -0.2547 0.0039, -0.0168 -0.2633 0.0039, -0.0168 -0.2902 0.0039, -0.0446 -0.2633 0.0039, 0.1148 -0.2989 0.0039, 0.0745 -0.2989 0.0039, 0.0405 -0.2988 0.0039, 0.0482 -0.2962 0.0039, -0.0465 -0.2201 0.0039, 0.0354 -0.2287 0.0039, 0.0413 -0.2308 0.0039, 0.0106 -0.2869 0.0039, 0.0467 -0.2345 0.0039, 0.0515 -0.2397 0.0039, 0.0572 -0.2603 0.0039, 0.0564 -0.2689 0.0039, 0.0542 -0.2756 0.0039, 0.0367 -0.2904 0.0039, 0.0294 -0.2912 0.0039, 0.0425 -0.2883 0.0039, 0.0473 -0.285 0.0039, 0.051 -0.2811 0.0039, 0.0189 -0.29 0.0039, 0.0636 -0.2409 0.0039, 0.059 -0.2335 0.0039, 0.1042 -0.2201 0.0039, 0.0547 -0.2458 0.0039, 0.0568 -0.2542 0.0039, 0.0519 -0.2267 0.0039, 0.1148 -0.2201 0.0039, 0.0545 -0.2922 0.0039, 0.0604 -0.2859 0.0039, 0.0745 -0.2902 0.0039, 0.0646 -0.2784 0.0039, 0.1042 -0.2902 0.0039, 0.067 -0.2701 0.0039, 0.0677 -0.261 0.0039, 0.0666 -0.2498 0.0039, 0.0444 -0.2224 0.0039, 0.0356 -0.2198 0.0039, 0.0277 -0.2192 0.0039, 0.0183 -0.2198 0.0039, 0.0092 -0.2223 0.0039, 0.0092 -0.2329 0.0039, 0.018 -0.2291 0.0039, 0.0276 -0.2278 0.0039, -0.9646 0.1362 0.0039, -0.7874 0.1362 0.0039, -0.7874 -0.0587 0.0039, -0.1329 -0.2989 0.0039, -0.1233 -0.2773 0.0039, -0.1187 -0.2843 0.0039, -0.1123 -0.2905 0.0039, -0.104 -0.2953 0.0039, -0.095 -0.298 0.0039, -0.1627 -0.2201 0.0039, -0.1733 -0.2201 0.0039, -0.1925 -0.2989 0.0039, -0.204 -0.2989 0.0039, -0.0852 -0.2989 0.0039, -0.0638 -0.2989 0.0039, -0.0638 -0.2201 0.0039, -0.086 -0.2201 0.0039, -0.1153 -0.2304 0.0039, -0.1208 -0.2366 0.0039, -0.1245 -0.2433 0.0039, -0.1445 -0.2989 0.0039, -0.152 -0.2768 0.0039, -0.1845 -0.2768 0.0039, -0.0974 -0.2213 0.0039, -0.1066 -0.2246 0.0039, -0.1152 -0.2303 0.0039, -0.1266 -0.2511 0.0039, -0.1272 -0.2585 0.0039, -0.1261 -0.269 0.0039
            ]
        }
        coordIndex [
            0,1,2,-1,3,4,5,-1,5,4,6,-1,5,6,7,-1,7,6,8,-1,7,8,9,-1,10,11,12,-1,13,14,15,-1,15,14,16,-1,15,16,17,-1,17,16,18,-1,17,18,19,-1,2,10,0,-1,0,10,12,-1,0,12,19,-1,19,12,9,-1,19,9,17,-1,17,9,8,-1,20,21,22,-1,23,24,25,-1,25,24,26,-1,27,28,29,-1,23,25,30,-1,30,25,31,-1,30,31,32,-1,22,27,20,-1,20,27,29,-1,20,29,32,-1,32,29,33,-1,32,33,30,-1,34,35,36,-1,36,35,37,-1,36,37,38,-1,39,40,17,-1,17,40,41,-1,17,41,42,-1,43,44,45,-1,45,44,30,-1,46,42,47,-1,47,42,48,-1,49,50,51,-1,51,50,15,-1,51,15,36,-1,36,15,17,-1,36,17,34,-1,34,17,42,-1,34,42,52,-1,52,42,46,-1,53,54,55,-1,55,54,56,-1,57,58,59,-1,59,58,40,-1,60,38,61,-1,61,38,62,-1,61,62,63,-1,48,64,39,-1,39,64,55,-1,39,55,40,-1,40,55,56,-1,40,56,59,-1,65,66,67,-1,67,66,68,-1,67,68,69,-1,70,71,67,-1,67,71,72,-1,73,74,75,-1,75,74,76,-1,72,77,67,-1,67,77,76,-1,67,76,78,-1,78,76,74,-1,79,80,81,-1,69,82,67,-1,67,82,83,-1,67,83,70,-1,80,84,81,-1,81,84,39,-1,81,39,85,-1,85,39,45,-1,85,45,60,-1,60,45,30,-1,60,30,38,-1,38,30,33,-1,38,33,36,-1,63,86,61,-1,61,86,87,-1,61,87,88,-1,88,87,89,-1,88,89,90,-1,89,91,90,-1,90,91,92,-1,90,92,81,-1,81,92,93,-1,81,93,79,-1,84,94,39,-1,39,94,95,-1,39,95,96,-1,96,97,39,-1,39,97,98,-1,39,98,48,-1,48,98,99,-1,48,99,47,-1,47,99,100,-1,47,100,67,-1,67,100,101,-1,67,101,65,-1,102,103,8,-1,8,103,104,-1,105,106,107,-1,107,108,105,-1,105,108,109,-1,105,109,110,-1,39,111,112,-1,113,17,114,-1,114,17,8,-1,114,8,112,-1,112,8,104,-1,112,104,39,-1,115,116,17,-1,17,116,117,-1,17,117,39,-1,39,117,118,-1,119,120,111,-1,111,120,121,-1,110,115,105,-1,105,115,17,-1,105,17,122,-1,122,17,113,-1,122,113,123,-1,123,113,124,-1,118,125,39,-1,39,125,126,-1,39,126,111,-1,111,126,127,-1,111,127,119,-1,121,128,111,-1,111,128,129,-1,111,129,105,-1,105,129,130,-1,105,130,106,-1,
        ]
    }
}
Shape{
    appearance Appearance {
        material  Material 	{
            diffuseColor 1.0 1.0 1.0
            specularColor 0.5019607843137255 0.5019607843137255 0.5019607843137255
            ambientIntensity 1.0
            transparency 0.0
            shininess 0.5
        }
    }
    geometry IndexedFaceSet {
        ccw TRUE
        solid FALSE
        coord DEF co Coordinate {
            point [
                -0.6693 -0.728 0.0, -0.6693 -0.728 0.0039, -0.6693 -0.7673 0.0039, -0.6693 -0.7673 0.1142, -0.6693 -0.8165 0.1142, -0.6693 -0.8165 0.0, -0.8307 -0.728 0.0039, -0.8307 -0.728 0.0, -0.8307 -0.7673 0.0039, -0.8307 -0.8165 0.0, -0.8307 -0.7673 0.1142, -0.8307 -0.8165 0.1142, -0.3307 -0.728 0.0039, -0.3307 -0.728 0.0, -0.3307 -0.7673 0.0039, -0.3307 -0.8165 0.0, -0.3307 -0.7673 0.1142, -0.3307 -0.8165 0.1142, -0.1693 -0.728 0.0, -0.1693 -0.728 0.0039, -0.1693 -0.7673 0.0039, -0.1693 -0.7673 0.1142, -0.1693 -0.8165 0.1142, -0.1693 -0.8165 0.0, 0.1693 -0.728 0.0039, 0.1693 -0.728 0.0, 0.1693 -0.7673 0.0039, 0.1693 -0.8165 0.0, 0.1693 -0.7673 0.1142, 0.1693 -0.8165 0.1142, 0.3307 -0.728 0.0, 0.3307 -0.728 0.0039, 0.3307 -0.7673 0.0039, 0.3307 -0.7673 0.1142, 0.3307 -0.8165 0.1142, 0.3307 -0.8165 0.0, 0.6693 -0.728 0.0039, 0.6693 -0.728 0.0, 0.6693 -0.7673 0.0039, 0.6693 -0.8165 0.0, 0.6693 -0.7673 0.1142, 0.6693 -0.8165 0.1142, 0.8307 -0.728 0.0, 0.8307 -0.728 0.0039, 0.8307 -0.7673 0.0039, 0.8307 -0.7673 0.1142, 0.8307 -0.8165 0.1142, 0.8307 -0.8165 0.0
            ]
        }
        coordIndex [
            0,1,2,-1,3,4,2,-1,2,4,5,-1,2,5,0,-1,6,7,8,-1,8,7,9,-1,8,9,10,-1,10,9,11,-1,12,13,14,-1,14,13,15,-1,14,15,16,-1,16,15,17,-1,18,19,20,-1,21,22,20,-1,20,22,23,-1,20,23,18,-1,24,25,26,-1,26,25,27,-1,26,27,28,-1,28,27,29,-1,30,31,32,-1,33,34,32,-1,32,34,35,-1,32,35,30,-1,36,37,38,-1,38,37,39,-1,38,39,40,-1,40,39,41,-1,42,43,44,-1,45,46,44,-1,44,46,47,-1,44,47,42,-1,
        ]
    }
}
Shape{
    appearance Appearance {
        material  Material 	{
            diffuseColor 0.25098039215686274 0.25098039215686274 0.25098039215686274
            specularColor 0.12549019607843137 0.12549019607843137 0.12549019607843137
            ambientIntensity 0.251
            transparency 0.0
            shininess 0.5
        }
    }
    geometry IndexedFaceSet {
        ccw TRUE
        solid FALSE
        coord DEF co Coordinate {
            point [
                0.9646 0.1362 0.0039, 0.9646 0.1362 0.1142, 0.9646 -0.2993 0.0039, 0.9646 -0.7673 0.1142, 0.9646 -0.7673 0.0039, -0.9646 1.5555 0.1142, -0.9646 1.5555 0.0039, -0.9646 0.2976 0.1142, -0.9646 0.2976 0.0039, 0.9646 1.5555 0.1142, 0.9646 1.5555 0.0039, 0.8307 1.5555 0.1142, 0.8307 1.5555 0.0039, -0.6693 1.5555 0.0039, -0.6693 1.5555 0.1142, 0.6693 1.5555 0.0039, 0.6693 1.5555 0.1142, 0.8307 1.211 0.0039, 0.9646 0.2976 0.0039, 0.7874 1.211 0.0039, 0.7874 0.2976 0.0039, 0.3307 -0.7673 0.1142, 0.3307 -0.7673 0.0039, 0.6693 -0.7673 0.1142, 0.6693 -0.7673 0.0039, 0.1693 -0.7673 0.0039, 0.1693 -0.7673 0.1142, -0.0561 -0.7673 0.0039, -0.1693 -0.7673 0.1142, -0.1693 -0.7673 0.0039, -0.6693 -0.7673 0.1142, -0.6693 -0.7673 0.0039, -0.3307 -0.7673 0.1142, -0.3307 -0.7673 0.0039, 0.8307 -0.7673 0.0039, 0.8307 -0.7673 0.1142, 0.9646 0.2976 0.1142, -0.9646 -0.7673 0.1142, -0.9646 -0.7673 0.0039, -0.8307 -0.7673 0.1142, -0.8307 -0.7673 0.0039, -0.9646 -0.2993 0.0039, -0.9646 0.1362 0.1142, -0.9646 0.1362 0.0039, -0.8307 1.5555 0.0039, -0.8307 1.5555 0.1142, 0.9298 1.5207 0.3976, 0.9298 -0.7325 0.3976, -0.9298 1.5207 0.3976, -0.9298 -0.7325 0.3976, -0.7303 -0.5904 0.3976, -0.7277 -0.61 0.3976, -0.8234 -0.6835 0.3976, -0.8417 -0.6759 0.3976, -0.8234 -0.5366 0.3976, -0.8417 -0.5442 0.3976, -0.8574 -0.5563 0.3976, -0.7499 -0.6638 0.3976, -0.7657 -0.6759 0.3976, -0.784 -0.6835 0.3976, -0.8037 -0.6861 0.3976, -0.7378 -0.572 0.3976, -0.7499 -0.5563 0.3976, -0.7303 -0.6297 0.3976, -0.7378 -0.6481 0.3976, -0.8574 -0.6638 0.3976, -0.8695 -0.6481 0.3976, -0.8771 -0.6297 0.3976, -0.8037 -0.534 0.3976, -0.784 -0.5366 0.3976, -0.7657 -0.5442 0.3976, -0.8797 -0.61 0.3976, -0.8771 -0.5904 0.3976, -0.8695 -0.572 0.3976
            ]
        }
        coordIndex [
            0,1,2,-1,2,1,3,-1,2,3,4,-1,5,6,7,-1,7,6,8,-1,9,10,11,-1,11,10,12,-1,13,14,15,-1,15,14,16,-1,12,10,17,-1,17,10,18,-1,17,18,19,-1,19,18,20,-1,21,22,23,-1,23,22,24,-1,25,26,27,-1,27,26,28,-1,27,28,29,-1,30,31,32,-1,32,31,33,-1,4,3,34,-1,34,3,35,-1,10,9,18,-1,18,9,36,-1,37,38,39,-1,39,38,40,-1,38,37,41,-1,41,37,42,-1,41,42,43,-1,6,5,44,-1,44,5,45,-1,9,46,36,-1,36,46,47,-1,36,47,1,-1,1,47,3,-1,45,5,48,-1,9,11,46,-1,46,11,16,-1,46,16,48,-1,48,16,14,-1,48,14,45,-1,48,5,7,-1,48,7,49,-1,49,7,42,-1,49,42,37,-1,37,39,49,-1,49,39,30,-1,30,32,49,-1,49,32,28,-1,49,28,47,-1,47,28,26,-1,47,26,21,-1,21,23,47,-1,47,23,35,-1,47,35,3,-1,50,51,47,-1,52,53,49,-1,54,48,55,-1,55,48,56,-1,57,58,47,-1,47,58,59,-1,47,59,49,-1,49,59,60,-1,49,60,52,-1,50,47,61,-1,61,47,46,-1,61,46,62,-1,51,63,47,-1,47,63,64,-1,47,64,57,-1,53,65,49,-1,49,65,66,-1,49,66,67,-1,54,68,48,-1,48,68,69,-1,48,69,46,-1,46,69,70,-1,46,70,62,-1,67,71,49,-1,49,71,72,-1,49,72,48,-1,48,72,73,-1,48,73,56,-1,
        ]
    }
}
Shape{
    appearance Appearance {
        material  Material 	{
            diffuseColor 0.0 0.0 0.0
            specularColor 0.0 0.0 0.0
            ambientIntensity 0.0
            transparency 0.0
            shininess 0.5
        }
    }
    geometry IndexedFaceSet {
        ccw TRUE
        solid FALSE
        coord DEF co Coordinate {
            point [
                -0.7277 -0.61 0.3972, -0.7277 -0.61 0.3976, -0.7303 -0.5904 0.3972, -0.7303 -0.5904 0.3976, -0.7378 -0.572 0.3972, -0.7378 -0.572 0.3976, -0.7499 -0.5563 0.3972, -0.7499 -0.5563 0.3976, -0.7657 -0.5442 0.3972, -0.7657 -0.5442 0.3976, -0.784 -0.5366 0.3972, -0.784 -0.5366 0.3976, -0.8037 -0.534 0.3972, -0.8037 -0.534 0.3976, -0.8234 -0.5366 0.3972, -0.8234 -0.5366 0.3976, -0.8417 -0.5442 0.3972, -0.8417 -0.5442 0.3976, -0.8574 -0.5563 0.3972, -0.8574 -0.5563 0.3976, -0.8695 -0.572 0.3972, -0.8695 -0.572 0.3976, -0.8771 -0.5904 0.3972, -0.8771 -0.5904 0.3976, -0.8797 -0.61 0.3972, -0.8797 -0.61 0.3976, -0.8771 -0.6297 0.3972, -0.8771 -0.6297 0.3976, -0.8695 -0.6481 0.3972, -0.8695 -0.6481 0.3976, -0.8574 -0.6638 0.3972, -0.8574 -0.6638 0.3976, -0.8417 -0.6759 0.3972, -0.8417 -0.6759 0.3976, -0.8234 -0.6835 0.3972, -0.8234 -0.6835 0.3976, -0.8037 -0.6861 0.3972, -0.8037 -0.6861 0.3976, -0.784 -0.6835 0.3972, -0.784 -0.6835 0.3976, -0.7657 -0.6759 0.3972, -0.7657 -0.6759 0.3976, -0.7499 -0.6638 0.3972, -0.7499 -0.6638 0.3976, -0.7378 -0.6481 0.3972, -0.7378 -0.6481 0.3976, -0.7303 -0.6297 0.3972, -0.7303 -0.6297 0.3976, -0.8037 -0.61 0.3972
            ]
        }
        coordIndex [
            0,1,2,-1,2,1,3,-1,2,3,4,-1,4,3,5,-1,4,5,6,-1,6,5,7,-1,6,7,8,-1,8,7,9,-1,8,9,10,-1,10,9,11,-1,10,11,12,-1,12,11,13,-1,12,13,14,-1,14,13,15,-1,14,15,16,-1,16,15,17,-1,16,17,18,-1,18,17,19,-1,18,19,20,-1,20,19,21,-1,20,21,22,-1,22,21,23,-1,22,23,24,-1,24,23,25,-1,24,25,26,-1,26,25,27,-1,26,27,28,-1,28,27,29,-1,28,29,30,-1,30,29,31,-1,30,31,32,-1,32,31,33,-1,32,33,34,-1,34,33,35,-1,34,35,36,-1,36,35,37,-1,36,37,38,-1,38,37,39,-1,38,39,40,-1,40,39,41,-1,40,41,42,-1,42,41,43,-1,42,43,44,-1,44,43,45,-1,44,45,46,-1,46,45,47,-1,46,47,0,-1,0,47,1,-1,44,46,48,-1,48,46,0,-1,48,0,2,-1,38,40,48,-1,48,40,42,-1,48,42,44,-1,32,34,48,-1,48,34,36,-1,48,36,38,-1,26,28,48,-1,48,28,30,-1,48,30,32,-1,20,22,48,-1,48,22,24,-1,48,24,26,-1,14,16,48,-1,48,16,18,-1,48,18,20,-1,8,10,48,-1,48,10,12,-1,48,12,14,-1,2,4,48,-1,48,4,6,-1,48,6,8,-1,
        ]
    }
}
Shape{
    appearance Appearance {
        material  Material 	{
            diffuseColor 1.0 1.0 1.0
            specularColor 0.5019607843137255 0.5019607843137255 0.5019607843137255
            ambientIntensity 1.0
            transparency 0.0
            shininess 0.5
        }
    }
    geometry IndexedFaceSet {
        ccw TRUE
        solid FALSE
        coord DEF co Coordinate {
            point [
                -0.6594 -0.5902 0.0, -0.8406 -0.5902 0.0, -0.6594 -0.5902 0.0039, -0.8406 -0.5902 0.0039, -0.8307 -0.7673 0.1142, -0.8307 -0.8165 0.1142, -0.6693 -0.7673 0.1142, -0.6693 -0.8165 0.1142, -0.6693 -0.8165 0.0, -0.8307 -0.8165 0.0, -0.8307 -0.728 0.0, -0.8406 -0.728 0.0, -0.6594 -0.728 0.0, -0.6693 -0.728 0.0, -0.1594 -0.5902 0.0, -0.3406 -0.5902 0.0, -0.1594 -0.5902 0.0039, -0.3406 -0.5902 0.0039, -0.3307 -0.8165 0.1142, -0.1693 -0.8165 0.1142, -0.3307 -0.7673 0.1142, -0.1693 -0.7673 0.1142, -0.1693 -0.8165 0.0, -0.3307 -0.8165 0.0, -0.1594 -0.728 0.0, -0.1693 -0.728 0.0, -0.3406 -0.728 0.0, -0.3307 -0.728 0.0, 0.3406 -0.5902 0.0, 0.1594 -0.5902 0.0, 0.3406 -0.5902 0.0039, 0.1594 -0.5902 0.0039, 0.1693 -0.8165 0.1142, 0.3307 -0.8165 0.1142, 0.1693 -0.7673 0.1142, 0.3307 -0.7673 0.1142, 0.3307 -0.8165 0.0, 0.1693 -0.8165 0.0, 0.3406 -0.728 0.0, 0.3307 -0.728 0.0, 0.1594 -0.728 0.0, 0.1693 -0.728 0.0, 0.8406 -0.5902 0.0, 0.6594 -0.5902 0.0, 0.8406 -0.5902 0.0039, 0.6594 -0.5902 0.0039, 0.6693 -0.8165 0.1142, 0.8307 -0.8165 0.1142, 0.6693 -0.7673 0.1142, 0.8307 -0.7673 0.1142, 0.8307 -0.8165 0.0, 0.6693 -0.8165 0.0, 0.8406 -0.728 0.0, 0.8307 -0.728 0.0, 0.6594 -0.728 0.0, 0.6693 -0.728 0.0, -0.7874 0.1362 0.0, -0.7874 -0.0587 0.0, -0.7874 0.1362 0.0039, -0.7874 -0.0587 0.0039, -0.0561 -0.0587 0.0039, 0.7874 -0.0587 0.0, 0.7874 -0.0587 0.0039, 0.7874 0.1362 0.0, 0.7874 0.1362 0.0039, 0.7874 0.2976 0.0, 0.7874 1.211 0.0, 0.7874 0.2976 0.0039, 0.7874 1.211 0.0039, 0.8307 1.211 0.0, 0.8307 1.211 0.0039, -0.8307 1.211 0.0, -0.7874 1.211 0.0, -0.8307 1.211 0.0039, -0.7874 1.211 0.0039, -0.7874 0.2976 0.0, -0.7874 0.2976 0.0039, 1.0138 0.1362 0.1142, 1.0138 0.2976 0.1142, 0.9646 0.1362 0.1142, 0.9646 0.2976 0.1142, 0.8307 1.6047 0.1142, 0.6693 1.6047 0.1142, 0.8307 1.5555 0.1142, 0.6693 1.5555 0.1142, -0.6693 1.6047 0.1142, -0.8307 1.6047 0.1142, -0.6693 1.5555 0.1142, -0.8307 1.5555 0.1142, -1.0138 0.2976 0.1142, -1.0138 0.1362 0.1142, -0.9646 0.2976 0.1142, -0.9646 0.1362 0.1142, 0.9646 0.1362 0.0039, 1.0138 0.1362 0.0, 1.0138 0.2976 0.0, 0.9646 0.2976 0.0039, 0.8307 1.5555 0.0039, 0.8307 1.6047 0.0, 0.6693 1.6047 0.0, 0.6693 1.5161 0.0, 0.6693 1.5161 0.0039, 0.6693 1.5555 0.0039, -0.8307 1.6047 0.0, -0.6693 1.6047 0.0, -0.9646 0.2976 0.0039, -1.0138 0.2976 0.0, -1.0138 0.1362 0.0, -0.9646 0.1362 0.0039, -0.6594 1.3783 0.0, -0.6594 1.5161 0.0, -0.6693 1.5161 0.0, 0.6594 1.3783 0.0, 0.6594 1.5161 0.0
            ]
        }
        coordIndex [
            0,1,2,-1,2,1,3,-1,4,5,6,-1,6,5,7,-1,8,7,9,-1,9,7,5,-1,10,11,1,-1,0,12,13,-1,8,9,13,-1,13,9,10,-1,13,10,0,-1,0,10,1,-1,14,15,16,-1,16,15,17,-1,18,19,20,-1,20,19,21,-1,22,19,23,-1,23,19,18,-1,14,24,15,-1,15,24,25,-1,26,15,27,-1,27,15,25,-1,27,25,23,-1,23,25,22,-1,28,29,30,-1,30,29,31,-1,32,33,34,-1,34,33,35,-1,36,33,37,-1,37,33,32,-1,28,38,29,-1,29,38,39,-1,40,29,41,-1,41,29,39,-1,41,39,37,-1,37,39,36,-1,42,43,44,-1,44,43,45,-1,46,47,48,-1,48,47,49,-1,50,47,51,-1,51,47,46,-1,42,52,43,-1,43,52,53,-1,54,43,55,-1,55,43,53,-1,55,53,51,-1,51,53,50,-1,56,57,58,-1,58,57,59,-1,59,57,60,-1,60,57,61,-1,60,61,62,-1,61,63,62,-1,62,63,64,-1,65,66,67,-1,67,66,68,-1,66,69,68,-1,68,69,70,-1,71,72,73,-1,73,72,74,-1,72,75,74,-1,74,75,76,-1,77,78,79,-1,79,78,80,-1,81,82,83,-1,83,82,84,-1,85,86,87,-1,87,86,88,-1,89,90,91,-1,91,90,92,-1,64,63,93,-1,93,63,94,-1,93,94,79,-1,79,94,77,-1,95,78,94,-1,94,78,77,-1,65,67,96,-1,80,78,96,-1,96,78,95,-1,96,95,65,-1,70,69,97,-1,97,69,98,-1,97,98,83,-1,83,98,81,-1,99,82,98,-1,98,82,81,-1,100,101,102,-1,84,82,102,-1,102,82,99,-1,102,99,100,-1,103,86,104,-1,104,86,85,-1,76,75,105,-1,105,75,106,-1,105,106,91,-1,91,106,89,-1,107,90,106,-1,106,90,89,-1,56,58,108,-1,92,90,108,-1,108,90,107,-1,108,107,56,-1,72,71,109,-1,110,109,111,-1,111,109,71,-1,111,71,104,-1,104,71,103,-1,107,106,56,-1,56,106,75,-1,61,57,63,-1,63,57,65,-1,63,65,94,-1,94,65,95,-1,112,113,100,-1,66,112,69,-1,69,112,100,-1,69,100,98,-1,98,100,99,-1,109,112,72,-1,72,112,66,-1,72,66,75,-1,75,66,65,-1,75,65,56,-1,56,65,57,-1,
        ]
    }
}
Shape{
    appearance Appearance {
        material  Material 	{
            diffuseColor 0.0 0.0 0.0
            specularColor 0.0 0.0 0.0
            ambientIntensity 0.0
            transparency 0.0
            shininess 0.5
        }
    }
    geometry IndexedFaceSet {
        ccw TRUE
        solid FALSE
        coord DEF co Coordinate {
            point [
                -0.1733 -0.2201 0.0043, -0.204 -0.2989 0.0043, -0.1733 -0.2201 0.0039, -0.204 -0.2989 0.0039, -0.1925 -0.2989 0.0043, -0.1925 -0.2989 0.0039, -0.1845 -0.2768 0.0043, -0.1845 -0.2768 0.0039, -0.152 -0.2768 0.0043, -0.152 -0.2768 0.0039, -0.1445 -0.2989 0.0043, -0.1445 -0.2989 0.0039, -0.1329 -0.2989 0.0043, -0.1329 -0.2989 0.0039, -0.1627 -0.2201 0.0043, -0.1627 -0.2201 0.0039, -0.1546 -0.2681 0.0043, -0.181 -0.2681 0.0043, -0.1664 -0.2353 0.0043, -0.1671 -0.2325 0.0043, -0.1676 -0.2297 0.0043, -0.1679 -0.2297 0.0043, -0.1684 -0.2325 0.0043, -0.1691 -0.2353 0.0043, -0.1546 -0.2681 0.0039, -0.181 -0.2681 0.0039, -0.1664 -0.2353 0.0039, -0.1671 -0.2325 0.0039, -0.1676 -0.2297 0.0039, -0.1679 -0.2297 0.0039, -0.1684 -0.2325 0.0039, -0.1691 -0.2353 0.0039, -0.0852 -0.2989 0.0043, -0.0638 -0.2989 0.0043, -0.0852 -0.2989 0.0039, -0.0638 -0.2989 0.0039, -0.0638 -0.2201 0.0043, -0.0638 -0.2201 0.0039, -0.086 -0.2201 0.0043, -0.086 -0.2201 0.0039, -0.1272 -0.2585 0.0043, -0.1272 -0.2585 0.0039, -0.1266 -0.2511 0.0039, -0.1266 -0.2511 0.0043, -0.1245 -0.2433 0.0039, -0.1245 -0.2433 0.0043, -0.1208 -0.2366 0.0039, -0.1208 -0.2366 0.0043, -0.1153 -0.2304 0.0039, -0.1153 -0.2304 0.0043, -0.1152 -0.2303 0.0039, -0.1152 -0.2303 0.0043, -0.1066 -0.2246 0.0039, -0.1066 -0.2246 0.0043, -0.0974 -0.2213 0.0039, -0.0974 -0.2213 0.0043, -0.095 -0.298 0.0039, -0.095 -0.298 0.0043, -0.104 -0.2953 0.0039, -0.104 -0.2953 0.0043, -0.1123 -0.2905 0.0039, -0.1123 -0.2905 0.0043, -0.1187 -0.2843 0.0039, -0.1187 -0.2843 0.0043, -0.1233 -0.2773 0.0039, -0.1233 -0.2773 0.0043, -0.1261 -0.269 0.0039, -0.1261 -0.269 0.0043, -0.1114 -0.2398 0.0043, -0.1076 -0.2358 0.0043, -0.1018 -0.232 0.0043, -0.0953 -0.2298 0.0043, -0.086 -0.2288 0.0043, -0.0744 -0.2288 0.0043, -0.0744 -0.2902 0.0043, -0.0855 -0.2902 0.0043, -0.0939 -0.2895 0.0043, -0.1005 -0.2874 0.0043, -0.1059 -0.2842 0.0043, -0.1103 -0.2798 0.0043, -0.1136 -0.2744 0.0043, -0.1159 -0.267 0.0043, -0.1166 -0.2587 0.0043, -0.116 -0.2509 0.0043, -0.1141 -0.2447 0.0043, -0.086 -0.2288 0.0039, -0.0744 -0.2288 0.0039, -0.0953 -0.2298 0.0039, -0.1018 -0.232 0.0039, -0.1076 -0.2358 0.0039, -0.1114 -0.2398 0.0039, -0.1141 -0.2447 0.0039, -0.116 -0.2509 0.0039, -0.1166 -0.2587 0.0039, -0.1159 -0.267 0.0039, -0.1136 -0.2744 0.0039, -0.1103 -0.2798 0.0039, -0.1059 -0.2842 0.0039, -0.1005 -0.2874 0.0039, -0.0939 -0.2895 0.0039, -0.0855 -0.2902 0.0039, -0.0744 -0.2902 0.0039, -0.0484 -0.2902 0.0043, -0.0484 -0.2989 0.0043, -0.0484 -0.2902 0.0039, -0.0484 -0.2989 0.0039, -0.0062 -0.2989 0.0043, -0.0062 -0.2989 0.0039, -0.0062 -0.2201 0.0043, -0.0062 -0.2201 0.0039, -0.0465 -0.2201 0.0043, -0.0465 -0.2201 0.0039, -0.0465 -0.2288 0.0043, -0.0465 -0.2288 0.0039, -0.0168 -0.2288 0.0043, -0.0168 -0.2288 0.0039, -0.0168 -0.2547 0.0043, -0.0168 -0.2547 0.0039, -0.0446 -0.2547 0.0043, -0.0446 -0.2547 0.0039, -0.0446 -0.2633 0.0043, -0.0446 -0.2633 0.0039, -0.0168 -0.2633 0.0043, -0.0168 -0.2633 0.0039, -0.0168 -0.2902 0.0043, -0.0168 -0.2902 0.0039, 0.0092 -0.2861 0.0043, 0.0092 -0.2948 0.0043, 0.0092 -0.2861 0.0039, 0.0092 -0.2948 0.0039, 0.0176 -0.2982 0.0043, 0.0308 -0.2998 0.0043, 0.0308 -0.2998 0.0039, 0.0287 -0.2998 0.0039, 0.0287 -0.2998 0.0043, 0.0255 -0.2993 0.0039, 0.0176 -0.2982 0.0039, 0.0355 -0.2993 0.0039, 0.0405 -0.2988 0.0043, 0.0405 -0.2988 0.0039, 0.0482 -0.2962 0.0043, 0.0482 -0.2962 0.0039, 0.0545 -0.2922 0.0043, 0.0545 -0.2922 0.0039, 0.0604 -0.2859 0.0043, 0.0604 -0.2859 0.0039, 0.0646 -0.2784 0.0043, 0.0646 -0.2784 0.0039, 0.067 -0.2701 0.0043, 0.067 -0.2701 0.0039, 0.0677 -0.261 0.0043, 0.0677 -0.261 0.0039, 0.0277 -0.2192 0.0043, 0.0277 -0.2192 0.0039, 0.0356 -0.2198 0.0039, 0.0356 -0.2198 0.0043, 0.0444 -0.2224 0.0039, 0.0444 -0.2224 0.0043, 0.0519 -0.2267 0.0039, 0.0519 -0.2267 0.0043, 0.059 -0.2335 0.0039, 0.059 -0.2335 0.0043, 0.0636 -0.2409 0.0039, 0.0636 -0.2409 0.0043, 0.0666 -0.2498 0.0039, 0.0666 -0.2498 0.0043, 0.0092 -0.2223 0.0043, 0.0092 -0.2223 0.0039, 0.0183 -0.2198 0.0039, 0.0183 -0.2198 0.0043, 0.0092 -0.2329 0.0043, 0.0092 -0.2329 0.0039, 0.0276 -0.2278 0.0043, 0.0276 -0.2278 0.0039, 0.018 -0.2291 0.0039, 0.018 -0.2291 0.0043, 0.0572 -0.2603 0.0043, 0.0572 -0.2603 0.0039, 0.0568 -0.2542 0.0039, 0.0568 -0.2542 0.0043, 0.0547 -0.2458 0.0039, 0.0547 -0.2458 0.0043, 0.0515 -0.2397 0.0039, 0.0515 -0.2397 0.0043, 0.0467 -0.2345 0.0039, 0.0467 -0.2345 0.0043, 0.0413 -0.2308 0.0039, 0.0413 -0.2308 0.0043, 0.0354 -0.2287 0.0039, 0.0354 -0.2287 0.0043, 0.0294 -0.2912 0.0043, 0.0294 -0.2912 0.0039, 0.0367 -0.2904 0.0039, 0.0367 -0.2904 0.0043, 0.0425 -0.2883 0.0039, 0.0425 -0.2883 0.0043, 0.0473 -0.285 0.0039, 0.0473 -0.285 0.0043, 0.051 -0.2811 0.0039, 0.051 -0.2811 0.0043, 0.0542 -0.2756 0.0039, 0.0542 -0.2756 0.0043, 0.0564 -0.2689 0.0039, 0.0564 -0.2689 0.0043, 0.0106 -0.2869 0.0039, 0.0106 -0.2869 0.0043, 0.0189 -0.29 0.0039, 0.0189 -0.29 0.0043, 0.0745 -0.2902 0.0043, 0.0745 -0.2989 0.0043, 0.0745 -0.2902 0.0039, 0.0745 -0.2989 0.0039, 0.1148 -0.2989 0.0043, 0.1148 -0.2989 0.0039, 0.1148 -0.2201 0.0043, 0.1148 -0.2201 0.0039, 0.1042 -0.2201 0.0043, 0.1042 -0.2201 0.0039, 0.1042 -0.2902 0.0043, 0.1042 -0.2902 0.0039
            ]
        }
        coordIndex [
            0,1,2,-1,2,1,3,-1,1,4,3,-1,3,4,5,-1,4,6,5,-1,5,6,7,-1,6,8,7,-1,7,8,9,-1,8,10,9,-1,9,10,11,-1,10,12,11,-1,11,12,13,-1,12,14,13,-1,13,14,15,-1,14,0,15,-1,15,0,2,-1,16,8,17,-1,17,8,6,-1,18,14,16,-1,16,14,12,-1,16,12,8,-1,8,12,10,-1,18,19,14,-1,14,19,20,-1,14,20,0,-1,0,20,21,-1,0,21,22,-1,22,23,0,-1,0,23,17,-1,0,17,1,-1,1,17,6,-1,1,6,4,-1,16,17,24,-1,24,17,25,-1,18,16,26,-1,26,16,24,-1,18,26,27,-1,18,27,19,-1,19,27,28,-1,19,28,20,-1,21,20,29,-1,29,20,28,-1,21,29,30,-1,21,30,22,-1,22,30,31,-1,22,31,23,-1,17,23,25,-1,25,23,31,-1,32,33,34,-1,34,33,35,-1,33,36,35,-1,35,36,37,-1,36,38,37,-1,37,38,39,-1,40,41,42,-1,40,42,43,-1,43,42,44,-1,43,44,45,-1,45,44,46,-1,45,46,47,-1,47,46,48,-1,47,48,49,-1,49,48,50,-1,49,50,51,-1,51,50,52,-1,51,52,53,-1,53,52,54,-1,53,54,55,-1,55,54,39,-1,55,39,38,-1,32,34,56,-1,32,56,57,-1,57,56,58,-1,57,58,59,-1,59,58,60,-1,59,60,61,-1,61,60,62,-1,61,62,63,-1,63,62,64,-1,63,64,65,-1,65,64,66,-1,65,66,67,-1,67,66,41,-1,67,41,40,-1,45,47,68,-1,68,47,49,-1,68,49,69,-1,69,49,51,-1,69,51,70,-1,70,51,53,-1,70,53,71,-1,71,53,55,-1,71,55,72,-1,72,55,38,-1,72,38,73,-1,73,38,36,-1,73,36,74,-1,74,36,33,-1,74,33,75,-1,75,33,32,-1,75,32,76,-1,76,32,57,-1,76,57,77,-1,77,57,59,-1,77,59,78,-1,78,59,61,-1,78,61,79,-1,79,61,63,-1,79,63,80,-1,80,63,65,-1,80,65,81,-1,81,65,67,-1,81,67,82,-1,82,67,40,-1,82,40,83,-1,83,40,43,-1,83,43,84,-1,84,43,45,-1,84,45,68,-1,72,73,85,-1,85,73,86,-1,72,85,87,-1,72,87,71,-1,71,87,88,-1,71,88,70,-1,70,88,89,-1,70,89,69,-1,69,89,90,-1,69,90,68,-1,68,90,91,-1,68,91,84,-1,84,91,92,-1,84,92,83,-1,83,92,93,-1,83,93,82,-1,82,93,94,-1,82,94,81,-1,81,94,95,-1,81,95,80,-1,80,95,96,-1,80,96,79,-1,79,96,97,-1,79,97,78,-1,78,97,98,-1,78,98,77,-1,77,98,99,-1,77,99,76,-1,76,99,100,-1,76,100,75,-1,74,75,101,-1,101,75,100,-1,73,74,86,-1,86,74,101,-1,102,103,104,-1,104,103,105,-1,103,106,105,-1,105,106,107,-1,106,108,107,-1,107,108,109,-1,108,110,109,-1,109,110,111,-1,110,112,111,-1,111,112,113,-1,112,114,113,-1,113,114,115,-1,114,116,115,-1,115,116,117,-1,116,118,117,-1,117,118,119,-1,118,120,119,-1,119,120,121,-1,120,122,121,-1,121,122,123,-1,122,124,123,-1,123,124,125,-1,124,102,125,-1,125,102,104,-1,106,103,102,-1,102,124,106,-1,106,124,122,-1,106,122,108,-1,112,110,114,-1,114,110,108,-1,114,108,116,-1,116,108,122,-1,116,122,118,-1,118,122,120,-1,126,127,128,-1,128,127,129,-1,129,127,130,-1,131,132,133,-1,131,133,134,-1,134,133,135,-1,134,135,130,-1,130,135,136,-1,130,136,129,-1,132,131,137,-1,137,131,138,-1,137,138,139,-1,139,138,140,-1,139,140,141,-1,141,140,142,-1,141,142,143,-1,143,142,144,-1,143,144,145,-1,145,144,146,-1,145,146,147,-1,147,146,148,-1,147,148,149,-1,149,148,150,-1,149,150,151,-1,152,153,154,-1,152,154,155,-1,155,154,156,-1,155,156,157,-1,157,156,158,-1,157,158,159,-1,159,158,160,-1,159,160,161,-1,161,160,162,-1,161,162,163,-1,163,162,164,-1,163,164,165,-1,165,164,151,-1,165,151,150,-1,166,167,168,-1,166,168,169,-1,169,168,153,-1,169,153,152,-1,166,170,167,-1,167,170,171,-1,172,173,174,-1,172,174,175,-1,175,174,171,-1,175,171,170,-1,176,177,178,-1,176,178,179,-1,179,178,180,-1,179,180,181,-1,181,180,182,-1,181,182,183,-1,183,182,184,-1,183,184,185,-1,185,184,186,-1,185,186,187,-1,187,186,188,-1,187,188,189,-1,189,188,173,-1,189,173,172,-1,190,191,192,-1,190,192,193,-1,193,192,194,-1,193,194,195,-1,195,194,196,-1,195,196,197,-1,197,196,198,-1,197,198,199,-1,199,198,200,-1,199,200,201,-1,201,200,202,-1,201,202,203,-1,203,202,177,-1,203,177,176,-1,126,128,204,-1,126,204,205,-1,205,204,206,-1,205,206,207,-1,207,206,191,-1,207,191,190,-1,193,131,190,-1,190,131,134,-1,190,134,207,-1,207,134,130,-1,207,130,205,-1,205,130,127,-1,205,127,126,-1,170,166,175,-1,175,166,169,-1,175,169,172,-1,172,169,152,-1,172,152,189,-1,189,152,155,-1,189,155,187,-1,187,155,157,-1,187,157,185,-1,185,157,159,-1,185,159,183,-1,183,159,161,-1,183,161,181,-1,181,161,163,-1,181,163,179,-1,179,163,165,-1,179,165,176,-1,176,165,150,-1,176,150,203,-1,203,150,148,-1,203,148,201,-1,201,148,146,-1,201,146,199,-1,199,146,144,-1,199,144,197,-1,197,144,142,-1,197,142,195,-1,195,142,140,-1,195,140,193,-1,193,140,138,-1,193,138,131,-1,208,209,210,-1,210,209,211,-1,209,212,211,-1,211,212,213,-1,212,214,213,-1,213,214,215,-1,214,216,215,-1,215,216,217,-1,216,218,217,-1,217,218,219,-1,218,208,219,-1,219,208,210,-1,216,214,218,-1,218,214,212,-1,218,212,208,-1,208,212,209,-1,
        ]
    }
}
Shape{
    appearance Appearance {
        material  Material 	{
            diffuseColor 0.25098039215686274 0.25098039215686274 0.25098039215686274
            specularColor 0.12549019607843137 0.12549019607843137 0.12549019607843137
            ambientIntensity 0.251
            transparency 0.0
            shininess 0.5
        }
    }
    geometry IndexedFaceSet {
        ccw TRUE
        solid FALSE
        coord DEF co Coordinate {
            point [
                -0.1546 -0.2681 0.0039, -0.181 -0.2681 0.0039, -0.1664 -0.2353 0.0039, -0.1691 -0.2353 0.0039, -0.1671 -0.2325 0.0039, -0.1684 -0.2325 0.0039, -0.1676 -0.2297 0.0039, -0.1679 -0.2297 0.0039, -0.0744 -0.2288 0.0039, -0.0744 -0.2902 0.0039, -0.086 -0.2288 0.0039, -0.0855 -0.2902 0.0039, -0.0939 -0.2895 0.0039, -0.1166 -0.2587 0.0039, -0.116 -0.2509 0.0039, -0.1141 -0.2447 0.0039, -0.0953 -0.2298 0.0039, -0.1005 -0.2874 0.0039, -0.1059 -0.2842 0.0039, -0.1103 -0.2798 0.0039, -0.1136 -0.2744 0.0039, -0.1159 -0.267 0.0039, -0.1114 -0.2398 0.0039, -0.1076 -0.2358 0.0039, -0.1018 -0.232 0.0039
            ]
        }
        coordIndex [
            0,1,2,-1,2,1,3,-1,2,3,4,-1,4,3,5,-1,4,5,6,-1,6,5,7,-1,8,9,10,-1,10,9,11,-1,10,11,12,-1,13,14,10,-1,10,14,15,-1,10,15,16,-1,12,17,10,-1,10,17,18,-1,10,18,19,-1,19,20,10,-1,10,20,21,-1,10,21,13,-1,22,23,15,-1,15,23,24,-1,15,24,16,-1,
        ]
    }
}
Shape{
    appearance Appearance {
        material  Material 	{
            diffuseColor 0.5019607843137255 0.25098039215686274 0.25098039215686274
            specularColor 0.44313725490196076 0.2196078431372549 0.2196078431372549
            ambientIntensity 0.326
            transparency 0.0
            shininess 0.5
        }
    }
    geometry IndexedFaceSet {
        ccw TRUE
        solid FALSE
        coord DEF co Coordinate {
            point [
                0.8406 -0.728 0.0, 0.8406 -0.728 0.0039, 0.8307 -0.728 0.0, 0.8307 -0.728 0.0039, 0.8406 -0.5902 0.0, 0.8406 -0.5902 0.0039, 0.6594 -0.728 0.0039, 0.6594 -0.728 0.0, 0.6693 -0.728 0.0039, 0.6693 -0.728 0.0, 0.6594 -0.5902 0.0, 0.6594 -0.5902 0.0039, 0.3406 -0.728 0.0, 0.3406 -0.728 0.0039, 0.3307 -0.728 0.0, 0.3307 -0.728 0.0039, 0.3406 -0.5902 0.0, 0.3406 -0.5902 0.0039, 0.1594 -0.728 0.0039, 0.1594 -0.728 0.0, 0.1693 -0.728 0.0039, 0.1693 -0.728 0.0, 0.1594 -0.5902 0.0, 0.1594 -0.5902 0.0039, -0.1594 -0.728 0.0, -0.1594 -0.728 0.0039, -0.1693 -0.728 0.0, -0.1693 -0.728 0.0039, -0.1594 -0.5902 0.0, -0.1594 -0.5902 0.0039, -0.3406 -0.728 0.0039, -0.3406 -0.728 0.0, -0.3307 -0.728 0.0039, -0.3307 -0.728 0.0, -0.3406 -0.5902 0.0, -0.3406 -0.5902 0.0039, -0.8406 -0.728 0.0039, -0.8406 -0.728 0.0, -0.8307 -0.728 0.0039, -0.8307 -0.728 0.0, -0.8406 -0.5902 0.0, -0.8406 -0.5902 0.0039, -0.6594 -0.728 0.0, -0.6594 -0.728 0.0039, -0.6693 -0.728 0.0, -0.6693 -0.728 0.0039, -0.6594 -0.5902 0.0, -0.6594 -0.5902 0.0039, 0.6693 1.5161 0.0, 0.6594 1.5161 0.0, 0.6693 1.5161 0.0039, 0.6594 1.5161 0.0039, 0.6594 1.3783 0.0, 0.6594 1.3783 0.0039, -0.6594 1.5161 0.0039, -0.6594 1.5161 0.0, -0.6693 1.5161 0.0039, -0.6693 1.5161 0.0, -0.6594 1.3783 0.0, -0.6594 1.3783 0.0039
            ]
        }
        coordIndex [
            0,1,2,-1,2,1,3,-1,0,4,1,-1,1,4,5,-1,6,7,8,-1,8,7,9,-1,10,7,11,-1,11,7,6,-1,12,13,14,-1,14,13,15,-1,12,16,13,-1,13,16,17,-1,18,19,20,-1,20,19,21,-1,22,19,23,-1,23,19,18,-1,24,25,26,-1,26,25,27,-1,24,28,25,-1,25,28,29,-1,30,31,32,-1,32,31,33,-1,34,31,35,-1,35,31,30,-1,36,37,38,-1,38,37,39,-1,40,37,41,-1,41,37,36,-1,42,43,44,-1,44,43,45,-1,42,46,43,-1,43,46,47,-1,48,49,50,-1,50,49,51,-1,49,52,51,-1,51,52,53,-1,54,55,56,-1,56,55,57,-1,58,55,59,-1,59,55,54,-1,
        ]
    }
}