#VRML V2.0 utf8
# 3D model generated by easyeda2kicad.py (https://github.com/uPesy/easyeda2kicad.py)

Shape{
    appearance Appearance {
        material  Material 	{
            diffuseColor 0.7529411764705882 0.7529411764705882 0.7529411764705882
            specularColor 0.3764705882352941 0.3764705882352941 0.3764705882352941
            ambientIntensity 0.7529
            transparency 0.0
            shininess 0.5
        }
    }
    geometry IndexedFaceSet {
        ccw TRUE
        solid FALSE
        coord DEF co Coordinate {
            point [
                0.4921 -1.2992 0.9449, 0.4921 -1.2992 0.748, 0.7874 -1.2992 0.9449, 1.1811 -1.2992 0.748, 0.7874 -1.2992 1.2992, 1.1811 -1.2992 1.2992, 0.7874 -1.2598 1.2992, 1.1811 -1.2598 1.2992, 0.7874 -1.2598 0.9449, 1.1811 -1.2598 0.748, 0.4921 -1.2598 0.9449, 0.4921 -1.2598 0.748, 0.4921 1.2992 0.748, 1.1811 1.2992 0.748, 0.4921 1.2598 0.748, 1.1811 1.2598 0.748, 0.7874 1.2992 1.2992, 1.1811 1.2992 1.2992, 0.7874 1.2992 0.9449, 0.4921 1.2992 0.9449, 0.4921 1.2598 0.9449, 0.7874 1.2598 0.9449, 0.7874 1.2598 1.2992, 1.1811 1.2598 1.2992, 0.7874 -1.1811 1.2992, 0.7874 1.1811 1.2992, -0.7874 -1.2598 1.2992, -1.1811 -1.2598 1.2992, -0.7874 -1.1811 1.2992, -1.1811 1.2598 1.2992, -0.7874 1.2598 1.2992, -0.7874 1.1811 1.2992, 0.5351 0.4021 1.2992, 0.4636 0.4827 1.2992, -0.1339 0.6558 1.2992, -0.0269 0.6687 1.2992, 0.0807 0.6644 1.2992, -0.501 0.4438 1.2992, -0.5657 0.3577 1.2992, -0.6157 0.2623 1.2992, -0.6498 0.1602 1.2992, 0.6693 -0.0 1.2992, 0.6606 0.1074 1.2992, -0.6498 -0.1602 1.2992, -0.6671 -0.0539 1.2992, -0.6671 0.0539 1.2992, -0.6157 -0.2623 1.2992, -0.5657 -0.3577 1.2992, -0.501 -0.4438 1.2992, -0.4233 -0.5184 1.2992, -0.3346 -0.5796 1.2992, -0.2373 -0.6258 1.2992, 0.6348 0.2119 1.2992, 0.5926 0.311 1.2992, 0.3802 0.5508 1.2992, 0.2869 0.6047 1.2992, 0.1862 0.6429 1.2992, -0.2373 0.6258 1.2992, -0.3346 0.5796 1.2992, -0.4233 0.5184 1.2992, 0.1862 -0.6429 1.2992, 0.2869 -0.6047 1.2992, 0.3802 -0.5508 1.2992, 0.4636 -0.4827 1.2992, 0.5351 -0.4021 1.2992, 0.5926 -0.311 1.2992, -0.1339 -0.6558 1.2992, -0.0269 -0.6687 1.2992, 0.0807 -0.6644 1.2992, 0.6348 -0.2119 1.2992, 0.6606 -0.1074 1.2992, 0.7874 -1.1811 1.3386, 0.7874 -1.2598 1.3386, 1.1811 -1.2598 1.3386, 1.1811 1.2598 1.3386, 0.7874 1.1811 1.3386, 0.7874 1.2598 1.3386, -0.7874 1.2598 1.3386, -1.1811 1.2598 1.3386, -0.7874 1.1811 1.3386, -1.1811 -1.2598 1.3386, -0.7874 -1.1811 1.3386, -0.7874 -1.2598 1.3386, 0.3802 -0.5508 1.3386, 0.2869 -0.6047 1.3386, -0.6498 0.1602 1.3386, -0.6157 0.2623 1.3386, -0.5657 0.3577 1.3386, -0.501 0.4438 1.3386, 0.6348 -0.2119 1.3386, 0.5926 -0.311 1.3386, 0.1862 0.6429 1.3386, 0.2869 0.6047 1.3386, 0.5351 -0.4021 1.3386, 0.4636 -0.4827 1.3386, -0.4233 0.5184 1.3386, -0.3346 0.5796 1.3386, -0.2373 0.6258 1.3386, 0.5351 0.4021 1.3386, 0.5926 0.311 1.3386, 0.1862 -0.6429 1.3386, 0.0807 -0.6644 1.3386, -0.0269 -0.6687 1.3386, -0.1339 -0.6558 1.3386, -0.2373 -0.6258 1.3386, -0.3346 -0.5796 1.3386, -0.4233 -0.5184 1.3386, -0.1339 0.6558 1.3386, -0.0269 0.6687 1.3386, 0.0807 0.6644 1.3386, 0.3802 0.5508 1.3386, 0.4636 0.4827 1.3386, -0.501 -0.4438 1.3386, -0.5657 -0.3577 1.3386, -0.6157 -0.2623 1.3386, 0.6348 0.2119 1.3386, 0.6606 0.1074 1.3386, 0.6693 0.0 1.3386, 0.6606 -0.1074 1.3386, -0.6498 -0.1602 1.3386, -0.6671 -0.0539 1.3386, -0.6671 0.0539 1.3386, 1.1811 -1.2979 1.3094, 0.7874 -1.2979 1.3094, 1.1811 -1.2939 1.3189, 0.7874 -1.2939 1.3189, 1.1811 -1.2877 1.3271, 0.7874 -1.2877 1.3271, 1.1811 -1.2795 1.3333, 0.7874 -1.2795 1.3333, 1.1811 -1.27 1.3372, 0.7874 -1.27 1.3372, -1.1811 -1.2992 1.2992, -0.7874 -1.2992 1.2992, -0.7874 -1.2979 1.3094, -1.1811 -1.2979 1.3094, -0.7874 -1.2939 1.3189, -1.1811 -1.2939 1.3189, -0.7874 -1.2877 1.3271, -1.1811 -1.2877 1.3271, -0.7874 -1.2795 1.3333, -1.1811 -1.2795 1.3333, -0.7874 -1.27 1.3372, -1.1811 -1.27 1.3372, -0.7874 -1.2992 0.9449, -1.1811 -1.2992 0.748, -0.4921 -1.2992 0.9449, -0.4921 -1.2992 0.748, -0.4921 -1.2598 0.9449, -0.4921 -1.2598 0.748, -0.7874 -1.2598 0.9449, -1.1811 -1.2598 0.748, 0.7874 1.2979 1.3094, 1.1811 1.2979 1.3094, 0.7874 1.2939 1.3189, 1.1811 1.2939 1.3189, 0.7874 1.2877 1.3271, 1.1811 1.2877 1.3271, 0.7874 1.2795 1.3333, 1.1811 1.2795 1.3333, 0.7874 1.27 1.3372, 1.1811 1.27 1.3372, -0.7874 1.2992 1.2992, -1.1811 1.2992 1.2992, -1.1811 1.2979 1.3094, -0.7874 1.2979 1.3094, -1.1811 1.2939 1.3189, -0.7874 1.2939 1.3189, -1.1811 1.2877 1.3271, -0.7874 1.2877 1.3271, -1.1811 1.2795 1.3333, -0.7874 1.2795 1.3333, -1.1811 1.27 1.3372, -0.7874 1.27 1.3372, -0.4921 1.2598 0.748, -1.1811 1.2598 0.748, -0.4921 1.2992 0.748, -1.1811 1.2992 0.748, -0.4921 1.2992 0.9449, -0.7874 1.2992 0.9449, -0.7874 1.2598 0.9449, -0.4921 1.2598 0.9449
            ]
        }
        coordIndex [
            0,1,2,-1,2,1,3,-1,2,3,4,-1,4,3,5,-1,6,7,8,-1,8,7,9,-1,8,9,10,-1,10,9,11,-1,11,9,1,-1,1,9,3,-1,12,13,14,-1,14,13,15,-1,16,17,18,-1,18,17,13,-1,18,13,19,-1,19,13,12,-1,20,14,21,-1,21,14,15,-1,21,15,22,-1,22,15,23,-1,21,18,20,-1,20,18,19,-1,2,8,0,-1,0,8,10,-1,23,7,24,-1,24,7,6,-1,25,22,23,-1,26,27,28,-1,28,27,29,-1,29,30,31,-1,25,32,33,-1,34,31,35,-1,35,31,36,-1,37,38,29,-1,29,38,39,-1,29,39,40,-1,23,24,25,-1,25,24,41,-1,25,41,42,-1,43,28,44,-1,44,28,29,-1,44,29,45,-1,45,29,40,-1,43,46,28,-1,28,46,47,-1,28,47,48,-1,48,49,28,-1,28,49,50,-1,28,50,51,-1,42,52,25,-1,25,52,53,-1,25,53,32,-1,33,54,25,-1,25,54,55,-1,25,55,31,-1,31,55,56,-1,31,56,36,-1,34,57,31,-1,31,57,58,-1,31,58,29,-1,29,58,59,-1,29,59,37,-1,60,61,24,-1,24,61,62,-1,62,63,24,-1,24,63,64,-1,24,64,65,-1,51,66,28,-1,28,66,67,-1,28,67,24,-1,24,67,68,-1,24,68,60,-1,65,69,24,-1,24,69,70,-1,24,70,41,-1,71,72,73,-1,73,74,75,-1,75,74,76,-1,77,78,79,-1,79,78,80,-1,79,80,81,-1,81,80,82,-1,83,84,71,-1,85,86,79,-1,79,86,87,-1,79,87,88,-1,89,90,71,-1,91,92,75,-1,90,93,71,-1,71,93,94,-1,71,94,83,-1,88,95,79,-1,79,95,96,-1,79,96,97,-1,75,98,99,-1,84,100,71,-1,71,100,101,-1,71,101,81,-1,81,101,102,-1,81,102,103,-1,103,104,81,-1,81,104,105,-1,81,105,106,-1,97,107,79,-1,79,107,108,-1,79,108,75,-1,75,108,109,-1,75,109,91,-1,92,110,75,-1,75,110,111,-1,75,111,98,-1,106,112,81,-1,81,112,113,-1,81,113,114,-1,99,115,75,-1,75,115,116,-1,75,116,73,-1,73,116,117,-1,73,117,71,-1,71,117,118,-1,71,118,89,-1,114,119,81,-1,81,119,120,-1,81,120,79,-1,79,120,121,-1,79,121,85,-1,4,5,122,-1,4,122,123,-1,123,122,124,-1,123,124,125,-1,125,124,126,-1,125,126,127,-1,127,126,128,-1,127,128,129,-1,129,128,130,-1,129,130,131,-1,131,130,73,-1,131,73,72,-1,132,133,134,-1,132,134,135,-1,135,134,136,-1,135,136,137,-1,137,136,138,-1,137,138,139,-1,139,138,140,-1,139,140,141,-1,141,140,142,-1,141,142,143,-1,143,142,82,-1,143,82,80,-1,133,132,144,-1,144,132,145,-1,144,145,146,-1,146,145,147,-1,148,149,150,-1,150,149,151,-1,150,151,26,-1,26,151,27,-1,17,16,152,-1,17,152,153,-1,153,152,154,-1,153,154,155,-1,155,154,156,-1,155,156,157,-1,157,156,158,-1,157,158,159,-1,159,158,160,-1,159,160,161,-1,161,160,76,-1,161,76,74,-1,74,73,23,-1,23,73,7,-1,27,80,29,-1,29,80,78,-1,132,135,27,-1,27,135,137,-1,27,137,139,-1,139,141,27,-1,27,141,143,-1,27,143,80,-1,5,7,122,-1,122,7,124,-1,7,73,130,-1,130,128,7,-1,7,128,126,-1,7,126,124,-1,145,132,151,-1,151,132,27,-1,147,145,149,-1,149,145,151,-1,5,3,7,-1,7,3,9,-1,17,153,23,-1,23,153,155,-1,23,155,157,-1,157,159,23,-1,23,159,161,-1,23,161,74,-1,162,163,164,-1,162,164,165,-1,165,164,166,-1,165,166,167,-1,167,166,168,-1,167,168,169,-1,169,168,170,-1,169,170,171,-1,171,170,172,-1,171,172,173,-1,173,172,78,-1,173,78,77,-1,29,78,172,-1,163,29,164,-1,164,29,166,-1,172,170,29,-1,29,170,168,-1,29,168,166,-1,13,17,15,-1,15,17,23,-1,174,175,176,-1,176,175,177,-1,163,177,29,-1,29,177,175,-1,178,176,179,-1,179,176,177,-1,179,177,162,-1,162,177,163,-1,30,29,180,-1,180,29,175,-1,180,175,181,-1,181,175,174,-1,75,25,79,-1,79,25,31,-1,22,156,154,-1,25,75,22,-1,22,75,76,-1,18,21,16,-1,16,21,22,-1,16,22,152,-1,152,22,154,-1,76,160,22,-1,22,160,158,-1,22,158,156,-1,30,169,171,-1,180,179,30,-1,30,179,162,-1,79,31,77,-1,77,31,30,-1,77,30,173,-1,173,30,171,-1,162,165,30,-1,30,165,167,-1,30,167,169,-1,179,180,178,-1,178,180,181,-1,71,81,24,-1,24,81,28,-1,6,127,129,-1,8,2,6,-1,6,2,4,-1,71,24,72,-1,72,24,6,-1,72,6,131,-1,131,6,129,-1,4,123,6,-1,6,123,125,-1,6,125,127,-1,26,138,136,-1,28,81,26,-1,26,81,82,-1,144,150,133,-1,133,150,26,-1,133,26,134,-1,134,26,136,-1,82,142,26,-1,26,142,140,-1,26,140,138,-1,150,144,148,-1,148,144,146,-1,146,147,148,-1,148,147,149,-1,1,0,11,-1,11,0,10,-1,181,174,178,-1,178,174,176,-1,19,12,20,-1,20,12,14,-1,41,117,42,-1,42,117,116,-1,42,116,52,-1,52,116,115,-1,52,115,53,-1,53,115,99,-1,53,99,32,-1,32,99,98,-1,32,98,33,-1,33,98,111,-1,33,111,54,-1,54,111,110,-1,54,110,55,-1,55,110,92,-1,55,92,56,-1,56,92,91,-1,56,91,36,-1,36,91,109,-1,36,109,35,-1,35,109,108,-1,35,108,34,-1,34,108,107,-1,34,107,57,-1,57,107,97,-1,57,97,58,-1,58,97,96,-1,58,96,59,-1,59,96,95,-1,59,95,37,-1,37,95,88,-1,37,88,38,-1,38,88,87,-1,38,87,39,-1,39,87,86,-1,39,86,40,-1,40,86,85,-1,40,85,45,-1,45,85,121,-1,45,121,44,-1,44,121,120,-1,44,120,43,-1,43,120,119,-1,43,119,46,-1,46,119,114,-1,46,114,47,-1,47,114,113,-1,47,113,48,-1,48,113,112,-1,48,112,49,-1,49,112,106,-1,49,106,50,-1,50,106,105,-1,50,105,51,-1,51,105,104,-1,51,104,66,-1,66,104,103,-1,66,103,67,-1,67,103,102,-1,67,102,68,-1,68,102,101,-1,68,101,60,-1,60,101,100,-1,60,100,61,-1,61,100,84,-1,61,84,62,-1,62,84,83,-1,62,83,63,-1,63,83,94,-1,63,94,64,-1,64,94,93,-1,64,93,65,-1,65,93,90,-1,65,90,69,-1,69,90,89,-1,69,89,70,-1,70,89,118,-1,70,118,41,-1,41,118,117,-1,
        ]
    }
}
Shape{
    appearance Appearance {
        material  Material 	{
            diffuseColor 0.2235294117647059 0.2235294117647059 0.2235294117647059
            specularColor 0.11372549019607843 0.11372549019607843 0.11372549019607843
            ambientIntensity 0.2235
            transparency 0.0
            shininess 0.5
        }
    }
    geometry IndexedFaceSet {
        ccw TRUE
        solid FALSE
        coord DEF co Coordinate {
            point [
                -0.4907 1.2598 0.0197, -0.4907 1.2992 0.0197, -0.1784 1.2992 0.0197, -0.14 -0.1458 0.0197, -0.14 -0.189 0.0197, -0.1784 -0.1914 0.0197, 0.0185 -0.0114 0.0197, 0.0185 -0.1458 0.0197, -0.1208 -0.0114 0.0197, 0.0185 0.1615 0.0197, 0.0185 0.0318 0.0197, -0.1304 0.1615 0.0197, -0.1208 0.0318 0.0197, 0.6762 -0.189 0.0197, 0.2772 -0.1914 0.0197, 0.4746 -0.189 0.0197, 0.3027 -0.1885 0.0197, 0.3391 -0.1776 0.0197, 0.3702 -0.1591 0.0197, 0.4007 -0.1291 0.0197, 0.4746 -0.1458 0.0197, 0.3852 -0.0267 0.0197, 0.1481 0.1411 0.0197, 0.1926 0.16 0.0197, 0.2492 -0.1506 0.0197, 0.1968 -0.1448 0.0197, 0.0713 -0.189 0.0197, 0.0713 0.2047 0.0197, 0.1481 -0.1254 0.0197, 0.1481 -0.1686 0.0197, 0.2007 -0.1882 0.0197, 0.2325 -0.1914 0.0197, -0.1304 0.2047 0.0197, 0.2403 0.1663 0.0197, 0.2759 0.1606 0.0197, 0.3882 0.0036 0.0197, 0.3758 -0.0671 0.0197, 0.3616 -0.0946 0.0197, 0.3419 -0.1174 0.0197, 0.4907 1.2992 0.0197, 0.4907 1.2598 0.0197, 0.3558 0.1127 0.0197, 0.3334 0.1356 0.0197, 0.3107 0.1496 0.0197, 0.3721 0.0851 0.0197, 0.3826 0.0504 0.0197, 0.3211 -0.1322 0.0197, 0.2896 -0.1438 0.0197, 0.3679 0.1673 0.0197, 0.6234 0.2047 0.0197, 0.4016 0.1319 0.0197, 0.4233 0.0944 0.0197, 0.3316 0.1903 0.0197, 0.2927 0.2029 0.0197, 0.2408 0.2095 0.0197, 0.1481 0.1939 0.0197, 0.1936 0.2063 0.0197, 0.4237 -0.0909 0.0197, 0.4356 -0.0508 0.0197, 0.6234 -0.1458 0.0197, 0.441 0.0004 0.0197, 0.4357 0.0507 0.0197, 0.4907 -1.2598 0.0197, 0.2564 -0.1938 0.0197, 0.6762 0.2047 0.0197, 1.1811 1.2598 0.0197, 1.1811 -0.1914 0.0197, 1.1811 -1.2598 0.0197, -0.1784 -1.2992 0.0197, -0.4907 -1.2992 0.0197, -0.4907 -1.2598 0.0197, -1.1811 -1.2598 0.0197, -1.1811 -0.1914 0.0197, 0.4907 -1.2992 0.0197, -0.3238 -0.189 0.0197, -0.2168 -0.189 0.0197, -0.2168 0.2047 0.0197, -0.8203 -0.0786 0.0197, -0.6577 -0.0786 0.0197, -0.8602 -0.189 0.0197, -0.6201 -0.189 0.0197, -0.5625 -0.189 0.0197, -0.4206 -0.1703 0.0197, -0.3774 -0.1831 0.0197, -0.9178 -0.189 0.0197, -0.7641 0.2047 0.0197, -1.1811 1.2598 0.0197, -0.7113 0.2047 0.0197, -0.5158 0.099 0.0197, -0.5274 0.0633 0.0197, -0.5337 0.0128 0.0197, -0.5279 -0.0371 0.0197, -0.516 -0.077 0.0197, -0.4958 -0.1108 0.0197, -0.4616 -0.1455 0.0197, -0.3279 0.2047 0.0197, -0.3744 0.1999 0.0197, -0.4191 0.1879 0.0197, -0.4605 0.1645 0.0197, -0.4946 0.1321 0.0197, -0.4907 1.2598 0.7259, 0.7821 1.2598 1.2992, 1.1811 1.2598 1.2992, 0.7821 1.2598 0.9522, -0.4997 1.2598 0.9522, -0.4997 1.2598 1.2992, 0.4997 1.2598 1.2992, 0.4907 1.2598 0.7259, 0.4997 1.2598 0.9522, -1.1811 1.2598 1.2992, -0.7821 1.2598 1.2992, -0.7821 1.2598 0.9522, -0.1778 0.6248 1.2992, -0.2896 0.5815 1.2992, -0.3915 0.5184 1.2992, -1.1811 -1.2598 1.2992, -0.7821 1.2992 1.2992, -0.4997 1.2992 1.2992, -0.0599 0.6468 1.2992, 0.0599 0.6468 1.2992, 0.1778 0.6248 1.2992, -0.7821 -1.2992 1.2992, -0.4997 -1.2992 1.2992, -0.7821 -1.2598 1.2992, -0.4997 -1.2598 1.2992, 0.2896 0.5815 1.2992, 0.3915 0.5184 1.2992, 0.4801 0.4376 1.2992, 0.5523 0.342 1.2992, 0.6057 0.2347 1.2992, -0.4801 -0.4376 1.2992, -0.3915 -0.5184 1.2992, -0.2896 -0.5815 1.2992, -0.5523 -0.342 1.2992, -0.6057 -0.2347 1.2992, -0.6385 -0.1194 1.2992, 0.6385 -0.1194 1.2992, 0.6057 -0.2347 1.2992, 0.4997 -1.2598 1.2992, 0.5523 -0.342 1.2992, 0.4997 -1.2992 1.2992, 0.7821 -1.2992 1.2992, 0.7821 -1.2598 1.2992, 1.1811 -1.2598 1.2992, 0.6496 0.0 1.2992, 0.6385 0.1194 1.2992, -0.6496 0.0 1.2992, -0.6385 0.1194 1.2992, -0.6057 0.2347 1.2992, -0.5523 0.342 1.2992, -0.4801 0.4376 1.2992, 0.4997 1.2992 1.2992, 0.7821 1.2992 1.2992, 0.4801 -0.4376 1.2992, 0.3915 -0.5184 1.2992, 0.2896 -0.5815 1.2992, 0.1778 -0.6248 1.2992, 0.0599 -0.6468 1.2992, -0.0599 -0.6468 1.2992, -0.1778 -0.6248 1.2992, -1.1811 -0.748 0.3543, -1.1811 -1.0236 0.3543, -1.1811 -1.0236 0.315, -1.1811 -0.748 0.315, -1.1811 0.748 0.315, -1.1811 1.0236 0.315, -1.1811 1.0236 0.3543, -1.1811 0.748 0.3543, 0.4997 -1.2598 0.9522, 0.4907 -1.2598 0.7259, -0.7821 -1.2598 0.9522, -0.4907 -1.2598 0.7259, -0.4997 -1.2598 0.9522, 0.7821 -1.2598 0.9522, 1.1811 -1.0236 0.315, 1.1811 -1.0236 0.3543, 1.1811 -0.748 0.3543, 1.1811 0.748 0.315, 1.1811 0.748 0.3543, 1.1811 -0.748 0.315, 1.1811 1.0236 0.3543, 1.1811 1.0236 0.315, 0.4997 1.2992 0.9522, 0.7821 1.2992 0.9522, -0.4997 1.2992 0.9522, -0.7821 1.2992 0.9522, 0.4997 -1.2992 0.9522, 0.7821 -1.2992 0.9522, -0.4997 -1.2992 0.9522, -0.7821 -1.2992 0.9522
            ]
        }
        coordIndex [
            0,1,2,-1,3,4,5,-1,6,7,8,-1,8,7,3,-1,9,10,11,-1,11,10,12,-1,13,14,15,-1,15,14,16,-1,15,16,17,-1,17,18,15,-1,15,18,19,-1,15,19,20,-1,21,22,23,-1,24,25,22,-1,26,27,28,-1,28,29,26,-1,26,29,30,-1,26,30,31,-1,27,32,2,-1,2,32,11,-1,2,11,3,-1,3,11,12,-1,3,12,8,-1,23,33,21,-1,21,33,34,-1,21,34,35,-1,21,36,22,-1,22,36,37,-1,22,37,38,-1,2,39,40,-1,41,34,42,-1,42,34,43,-1,41,44,34,-1,34,44,45,-1,34,45,35,-1,38,46,22,-1,22,46,47,-1,22,47,24,-1,48,49,50,-1,50,49,51,-1,48,52,2,-1,2,52,53,-1,2,53,54,-1,25,28,22,-1,22,28,27,-1,22,27,55,-1,55,27,2,-1,55,2,56,-1,56,2,54,-1,19,57,20,-1,20,57,58,-1,20,58,59,-1,59,58,60,-1,59,60,49,-1,49,60,61,-1,49,61,51,-1,4,26,5,-1,5,26,31,-1,5,31,62,-1,62,31,63,-1,62,63,14,-1,48,2,49,-1,49,2,40,-1,49,40,64,-1,64,40,65,-1,64,65,13,-1,13,65,66,-1,13,66,14,-1,14,66,67,-1,14,67,62,-1,68,69,70,-1,71,72,70,-1,70,72,5,-1,70,5,68,-1,68,5,62,-1,68,62,73,-1,74,75,5,-1,5,75,76,-1,77,78,79,-1,79,78,80,-1,81,82,83,-1,84,72,85,-1,85,72,86,-1,85,86,87,-1,87,86,0,-1,88,89,87,-1,87,89,90,-1,87,90,81,-1,81,90,91,-1,81,91,92,-1,92,93,81,-1,81,93,94,-1,81,94,82,-1,83,74,81,-1,81,74,5,-1,81,5,80,-1,80,5,72,-1,80,72,79,-1,79,72,84,-1,3,5,2,-1,2,5,76,-1,2,76,0,-1,0,76,95,-1,0,95,96,-1,96,97,0,-1,0,97,98,-1,0,98,87,-1,87,98,99,-1,87,99,88,-1,100,0,86,-1,101,102,103,-1,103,102,65,-1,104,105,106,-1,65,40,103,-1,103,40,107,-1,103,107,108,-1,108,107,100,-1,109,110,86,-1,86,110,111,-1,86,111,100,-1,100,111,104,-1,100,104,108,-1,108,104,106,-1,112,101,113,-1,113,101,114,-1,109,115,110,-1,110,115,105,-1,110,105,116,-1,116,105,117,-1,112,118,101,-1,101,118,119,-1,101,119,120,-1,121,122,123,-1,123,122,124,-1,120,125,101,-1,101,125,126,-1,101,126,102,-1,126,127,102,-1,102,127,128,-1,102,128,129,-1,130,115,131,-1,131,115,123,-1,131,123,132,-1,130,133,115,-1,115,133,134,-1,115,134,135,-1,136,137,138,-1,138,137,139,-1,140,141,138,-1,138,141,142,-1,138,142,136,-1,136,142,143,-1,136,143,144,-1,144,143,102,-1,144,102,145,-1,145,102,129,-1,135,146,115,-1,115,146,147,-1,115,147,105,-1,105,147,148,-1,105,148,149,-1,149,150,105,-1,105,150,114,-1,105,114,106,-1,106,114,101,-1,106,101,151,-1,151,101,152,-1,139,153,138,-1,138,153,154,-1,138,154,155,-1,155,156,138,-1,138,156,157,-1,138,157,124,-1,124,157,158,-1,124,158,123,-1,123,158,159,-1,123,159,132,-1,160,161,115,-1,115,161,71,-1,71,161,162,-1,71,162,72,-1,72,162,163,-1,72,163,160,-1,164,165,86,-1,86,165,166,-1,86,72,164,-1,164,72,160,-1,164,160,167,-1,167,160,115,-1,167,115,166,-1,166,115,109,-1,166,109,86,-1,168,138,124,-1,169,62,67,-1,170,171,172,-1,172,171,169,-1,123,115,170,-1,170,115,71,-1,170,71,171,-1,171,71,70,-1,143,142,67,-1,67,142,173,-1,67,173,169,-1,169,173,168,-1,169,168,172,-1,172,168,124,-1,67,174,175,-1,176,102,175,-1,175,102,143,-1,175,143,67,-1,65,177,66,-1,66,177,178,-1,174,67,179,-1,179,67,66,-1,179,66,176,-1,176,66,178,-1,176,178,102,-1,102,178,180,-1,102,180,65,-1,65,180,181,-1,65,181,177,-1,151,182,106,-1,106,182,108,-1,183,152,103,-1,103,152,101,-1,182,183,108,-1,108,183,103,-1,152,183,151,-1,151,183,182,-1,184,117,104,-1,104,117,105,-1,185,184,111,-1,111,184,104,-1,116,185,110,-1,110,185,111,-1,185,116,184,-1,184,116,117,-1,186,140,168,-1,168,140,138,-1,187,186,173,-1,173,186,168,-1,141,187,142,-1,142,187,173,-1,187,141,186,-1,186,141,140,-1,122,188,124,-1,124,188,172,-1,189,121,170,-1,170,121,123,-1,188,189,172,-1,172,189,170,-1,121,189,122,-1,122,189,188,-1,
        ]
    }
}
Shape{
    appearance Appearance {
        material  Material 	{
            diffuseColor 0.996078431372549 0.8705882352941177 0.7607843137254902
            specularColor 0.4980392156862745 0.43529411764705883 0.3803921568627451
            ambientIntensity 0.8956
            transparency 0.0
            shininess 0.5
        }
    }
    geometry IndexedFaceSet {
        ccw TRUE
        solid FALSE
        coord DEF co Coordinate {
            point [
                -0.6482 -0.0434 1.6535, -0.6496 0.0 1.2992, -0.6385 -0.1194 1.2992, -0.6047 -0.2342 1.6535, -0.6137 -0.2131 1.6535, -0.6057 -0.2347 1.2992, -0.6366 -0.1294 1.6535, -0.6379 -0.1193 1.6535, -0.5798 -0.293 1.6535, -0.5523 -0.342 1.2992, -0.5512 -0.3413 1.6535, -0.5356 -0.3676 1.6535, -0.4801 -0.4376 1.2992, -0.4818 -0.4357 1.6535, -0.3915 -0.5184 1.2992, -0.4194 -0.4961 1.6535, -0.4799 -0.4375 1.6535, -0.2896 -0.5815 1.2992, -0.3495 -0.5475 1.6535, -0.3906 -0.5173 1.6535, -0.1776 -0.624 1.6535, -0.1925 -0.6204 1.6535, -0.1778 -0.6248 1.2992, -0.2734 -0.5893 1.6535, -0.2891 -0.5807 1.6535, -0.108 -0.6406 1.6535, -0.0599 -0.6468 1.2992, -0.0598 -0.6454 1.6535, -0.0217 -0.6492 1.6535, 0.0599 -0.6468 1.2992, 0.0599 -0.6465 1.6535, 0.065 -0.6463 1.6535, 0.1778 -0.6248 1.2992, 0.1506 -0.6319 1.6535, 0.2896 -0.5815 1.2992, 0.2335 -0.6062 1.6535, 0.1774 -0.6236 1.6535, 0.3912 -0.518 1.6535, 0.3853 -0.523 1.6535, 0.3915 -0.5184 1.2992, 0.3122 -0.5697 1.6535, 0.289 -0.5804 1.6535, 0.4516 -0.467 1.6535, 0.4801 -0.4376 1.2992, 0.479 -0.4367 1.6535, 0.5098 -0.4026 1.6535, 0.5523 -0.342 1.2992, 0.5517 -0.3416 1.6535, 0.5589 -0.3311 1.6535, 0.6057 -0.2347 1.2992, 0.5981 -0.2536 1.6535, 0.6385 -0.1194 1.2992, 0.6265 -0.1716 1.6535, 0.6048 -0.2343 1.6535, 0.6496 0.0 1.2992, 0.6438 -0.0866 1.6535, 0.6372 -0.1191 1.6535, 0.6385 0.1194 1.2992, 0.6438 0.0866 1.6535, 0.6496 -0.0 1.6535, 0.6057 0.2347 1.2992, 0.6265 0.1716 1.6535, 0.6372 0.1191 1.6535, 0.5517 0.3416 1.6535, 0.5589 0.3311 1.6535, 0.5523 0.342 1.2992, 0.5981 0.2536 1.6535, 0.6048 0.2343 1.6535, 0.5098 0.4026 1.6535, 0.4801 0.4376 1.2992, 0.479 0.4367 1.6535, 0.4516 0.467 1.6535, 0.3915 0.5184 1.2992, 0.3912 0.518 1.6535, 0.3853 0.523 1.6535, 0.2896 0.5815 1.2992, 0.3122 0.5697 1.6535, 0.1778 0.6248 1.2992, 0.2335 0.6062 1.6535, 0.289 0.5804 1.6535, 0.0599 0.6465 1.6535, 0.065 0.6463 1.6535, 0.0599 0.6468 1.2992, 0.1506 0.6319 1.6535, 0.1774 0.6236 1.6535, -0.0217 0.6492 1.6535, -0.0599 0.6468 1.2992, -0.0598 0.6454 1.6535, -0.108 0.6406 1.6535, -0.1778 0.6248 1.2992, -0.1776 0.624 1.6535, -0.1925 0.6204 1.6535, -0.2896 0.5815 1.2992, -0.2734 0.5893 1.6535, -0.3915 0.5184 1.2992, -0.3495 0.5475 1.6535, -0.2891 0.5807 1.6535, -0.4801 0.4376 1.2992, -0.4194 0.4961 1.6535, -0.3906 0.5173 1.6535, -0.5512 0.3413 1.6535, -0.5356 0.3676 1.6535, -0.5523 0.342 1.2992, -0.4818 0.4357 1.6535, -0.4799 0.4375 1.6535, -0.5798 0.293 1.6535, -0.6057 0.2347 1.2992, -0.6047 0.2342 1.6535, -0.6137 0.2131 1.6535, -0.6385 0.1194 1.2992, -0.6366 0.1294 1.6535, -0.6482 0.0 1.6535, -0.6482 0.0434 1.6535, -0.6379 0.1193 1.6535, 0.6102 0.0 1.6929, 0.6048 0.0813 1.6929, 0.0 0.0 1.6929, 0.6048 -0.0813 1.6929, 0.525 -0.311 1.6929, 0.5618 -0.2382 1.6929, 0.5886 -0.1612 1.6929, 0.362 -0.4913 1.6929, 0.4242 -0.4387 1.6929, 0.4789 -0.3782 1.6929, 0.1415 -0.5936 1.6929, 0.2193 -0.5695 1.6929, 0.2933 -0.5351 1.6929, -0.1015 -0.6017 1.6929, -0.0204 -0.6099 1.6929, 0.0611 -0.6072 1.6929, -0.3284 -0.5144 1.6929, -0.2569 -0.5535 1.6929, -0.1808 -0.5828 1.6929, -0.5031 -0.3454 1.6929, -0.4526 -0.4093 1.6929, -0.394 -0.466 1.6929, -0.598 -0.1216 1.6929, -0.5765 -0.2002 1.6929, -0.5446 -0.2752 1.6929, -0.598 0.1216 1.6929, -0.6089 0.0408 1.6929, -0.6089 -0.0408 1.6929, -0.5031 0.3454 1.6929, -0.5446 0.2752 1.6929, -0.5765 0.2002 1.6929, -0.3284 0.5144 1.6929, -0.394 0.466 1.6929, -0.4526 0.4093 1.6929, -0.1015 0.6017 1.6929, -0.1808 0.5828 1.6929, -0.2569 0.5535 1.6929, 0.1415 0.5936 1.6929, 0.0611 0.6072 1.6929, -0.0204 0.6099 1.6929, 0.362 0.4913 1.6929, 0.2933 0.5351 1.6929, 0.2193 0.5695 1.6929, 0.525 0.311 1.6929, 0.4789 0.3782 1.6929, 0.4242 0.4387 1.6929, 0.5886 0.1612 1.6929, 0.5618 0.2382 1.6929, 0.6252 0.1713 1.6637, 0.5088 0.4018 1.6637, 0.4507 0.466 1.6637, 0.233 0.6049 1.6637, -0.0217 0.6479 1.6637, -0.1078 0.6392 1.6637, -0.3488 0.5464 1.6637, -0.4185 0.495 1.6637, -0.4808 0.4348 1.6637, -0.5786 0.2924 1.6637, -0.6468 0.0433 1.6637, -0.6468 -0.0433 1.6637, -0.5786 -0.2924 1.6637, -0.4185 -0.495 1.6637, -0.3488 -0.5464 1.6637, -0.1078 -0.6392 1.6637, -0.0217 -0.6479 1.6637, 0.0649 -0.645 1.6637, 0.233 -0.6049 1.6637, 0.4507 -0.466 1.6637, 0.5088 -0.4018 1.6637, 0.6252 -0.1713 1.6637, 0.6425 -0.0864 1.6637, 0.5338 -0.3162 1.6916, 0.4869 -0.3845 1.6916, 0.542 -0.321 1.6876, 0.4944 -0.3904 1.6876, 0.549 -0.3252 1.6814, 0.5008 -0.3954 1.6814, 0.5544 -0.3284 1.6732, 0.5057 -0.3993 1.6732, 0.5578 -0.3304 1.6637, 0.2982 -0.5441 1.6916, 0.223 -0.579 1.6916, 0.3027 -0.5524 1.6876, 0.2264 -0.5878 1.6876, 0.3066 -0.5596 1.6814, 0.2293 -0.5954 1.6814, 0.3097 -0.565 1.6732, 0.2316 -0.6013 1.6732, 0.3115 -0.5685 1.6637, -0.2612 -0.5628 1.6916, -0.3338 -0.523 1.6916, -0.2652 -0.5714 1.6876, -0.3389 -0.531 1.6876, -0.2686 -0.5788 1.6814, -0.3433 -0.5378 1.6814, -0.2712 -0.5845 1.6732, -0.3467 -0.5431 1.6732, -0.2729 -0.588 1.6637, -0.5115 -0.3511 1.6916, -0.5537 -0.2798 1.6916, -0.5193 -0.3565 1.6876, -0.5622 -0.2841 1.6876, -0.5261 -0.3611 1.6814, -0.5695 -0.2878 1.6814, -0.5312 -0.3647 1.6732, -0.5751 -0.2906 1.6732, -0.5345 -0.3669 1.6637, -0.608 -0.1236 1.6916, -0.619 -0.0414 1.6916, -0.6173 -0.1255 1.6876, -0.6285 -0.0421 1.6876, -0.6253 -0.1271 1.6814, -0.6367 -0.0426 1.6814, -0.6314 -0.1283 1.6732, -0.6429 -0.043 1.6732, -0.6353 -0.1291 1.6637, -0.5861 0.2035 1.6916, -0.5537 0.2798 1.6916, -0.5951 0.2066 1.6876, -0.5622 0.2841 1.6876, -0.6028 0.2093 1.6814, -0.5695 0.2878 1.6814, -0.6087 0.2114 1.6732, -0.5751 0.2906 1.6732, -0.6124 0.2126 1.6637, -0.1838 0.5926 1.6916, -0.1032 0.6118 1.6916, -0.1866 0.6016 1.6876, -0.1048 0.6211 1.6876, -0.189 0.6094 1.6814, -0.1061 0.6292 1.6814, -0.1909 0.6154 1.6732, -0.1072 0.6354 1.6732, -0.1921 0.6192 1.6637, 0.1438 0.6035 1.6916, 0.223 0.579 1.6916, 0.146 0.6128 1.6876, 0.2264 0.5878 1.6876, 0.1479 0.6207 1.6814, 0.2293 0.5954 1.6814, 0.1494 0.6268 1.6732, 0.2316 0.6013 1.6732, 0.1503 0.6306 1.6637, 0.368 0.4995 1.6916, 0.4313 0.446 1.6916, 0.3737 0.5071 1.6876, 0.4379 0.4528 1.6876, 0.3785 0.5137 1.6814, 0.4436 0.4587 1.6814, 0.3822 0.5187 1.6732, 0.4479 0.4632 1.6732, 0.3845 0.5219 1.6637, 0.5712 0.2422 1.6916, 0.5984 0.1639 1.6916, 0.5799 0.2459 1.6876, 0.6075 0.1664 1.6876, 0.5874 0.2491 1.6814, 0.6154 0.1686 1.6814, 0.5932 0.2515 1.6732, 0.6214 0.1702 1.6732, 0.5968 0.2531 1.6637, 0.6204 0.0 1.6916, 0.6149 -0.0827 1.6916, 0.6299 0.0 1.6876, 0.6243 -0.084 1.6876, 0.6381 0.0 1.6814, 0.6324 -0.085 1.6814, 0.6443 0.0 1.6732, 0.6386 -0.0859 1.6732, 0.6483 0.0 1.6637, 0.5984 -0.1639 1.6916, 0.6075 -0.1664 1.6876, 0.6154 -0.1686 1.6814, 0.6214 -0.1702 1.6732, 0.5968 -0.2531 1.6637, 0.5932 -0.2515 1.6732, 0.5874 -0.2491 1.6814, 0.5799 -0.2459 1.6876, 0.5712 -0.2422 1.6916, 0.4479 -0.4632 1.6732, 0.4436 -0.4587 1.6814, 0.4379 -0.4528 1.6876, 0.4313 -0.446 1.6916, 0.3845 -0.5219 1.6637, 0.3822 -0.5187 1.6732, 0.3785 -0.5137 1.6814, 0.3737 -0.5071 1.6876, 0.368 -0.4995 1.6916, 0.1503 -0.6306 1.6637, 0.1494 -0.6268 1.6732, 0.1479 -0.6207 1.6814, 0.146 -0.6128 1.6876, 0.1438 -0.6035 1.6916, 0.0621 -0.6173 1.6916, 0.0631 -0.6268 1.6876, 0.0639 -0.6349 1.6814, 0.0645 -0.6411 1.6732, -0.0215 -0.644 1.6732, -0.0213 -0.6377 1.6814, -0.021 -0.6296 1.6876, -0.0207 -0.6201 1.6916, -0.1032 -0.6118 1.6916, -0.1048 -0.6211 1.6876, -0.1061 -0.6292 1.6814, -0.1072 -0.6354 1.6732, -0.1921 -0.6192 1.6637, -0.1909 -0.6154 1.6732, -0.189 -0.6094 1.6814, -0.1866 -0.6016 1.6876, -0.1838 -0.5926 1.6916, -0.416 -0.492 1.6732, -0.412 -0.4873 1.6814, -0.4067 -0.481 1.6876, -0.4006 -0.4738 1.6916, -0.4808 -0.4348 1.6637, -0.4779 -0.4322 1.6732, -0.4732 -0.428 1.6814, -0.4672 -0.4225 1.6876, -0.4601 -0.4162 1.6916, -0.6124 -0.2126 1.6637, -0.6087 -0.2114 1.6732, -0.6028 -0.2093 1.6814, -0.5951 -0.2066 1.6876, -0.5861 -0.2035 1.6916, -0.619 0.0414 1.6916, -0.6285 0.0421 1.6876, -0.6367 0.0426 1.6814, -0.6429 0.043 1.6732, -0.6353 0.1291 1.6637, -0.6314 0.1283 1.6732, -0.6253 0.1271 1.6814, -0.6173 0.1255 1.6876, -0.608 0.1236 1.6916, -0.5345 0.3669 1.6637, -0.5312 0.3647 1.6732, -0.5261 0.3611 1.6814, -0.5193 0.3565 1.6876, -0.5115 0.3511 1.6916, -0.4601 0.4162 1.6916, -0.4672 0.4225 1.6876, -0.4732 0.428 1.6814, -0.4779 0.4322 1.6732, -0.416 0.492 1.6732, -0.412 0.4873 1.6814, -0.4067 0.481 1.6876, -0.4006 0.4738 1.6916, -0.3338 0.523 1.6916, -0.3389 0.531 1.6876, -0.3433 0.5378 1.6814, -0.3467 0.5431 1.6732, -0.2729 0.588 1.6637, -0.2712 0.5845 1.6732, -0.2686 0.5788 1.6814, -0.2652 0.5714 1.6876, -0.2612 0.5628 1.6916, -0.0215 0.644 1.6732, -0.0213 0.6377 1.6814, -0.021 0.6296 1.6876, -0.0207 0.6201 1.6916, 0.0649 0.645 1.6637, 0.0645 0.6411 1.6732, 0.0639 0.6349 1.6814, 0.0631 0.6268 1.6876, 0.0621 0.6173 1.6916, 0.3115 0.5685 1.6637, 0.3097 0.565 1.6732, 0.3066 0.5596 1.6814, 0.3027 0.5524 1.6876, 0.2982 0.5441 1.6916, 0.4869 0.3845 1.6916, 0.4944 0.3904 1.6876, 0.5008 0.3954 1.6814, 0.5057 0.3993 1.6732, 0.5578 0.3304 1.6637, 0.5544 0.3284 1.6732, 0.549 0.3252 1.6814, 0.542 0.321 1.6876, 0.5338 0.3162 1.6916, 0.6425 0.0864 1.6637, 0.6386 0.0859 1.6732, 0.6324 0.085 1.6814, 0.6243 0.084 1.6876, 0.6149 0.0827 1.6916
            ]
        }
        coordIndex [
            0,1,2,-1,3,4,5,-1,5,4,6,-1,5,6,2,-1,2,6,7,-1,2,7,0,-1,3,5,8,-1,8,5,9,-1,8,9,10,-1,10,9,11,-1,11,9,12,-1,11,12,13,-1,14,15,12,-1,12,15,16,-1,12,16,13,-1,17,18,14,-1,14,18,19,-1,14,19,15,-1,20,21,22,-1,22,21,23,-1,22,23,17,-1,17,23,24,-1,17,24,18,-1,20,22,25,-1,25,22,26,-1,25,26,27,-1,27,26,28,-1,28,26,29,-1,28,29,30,-1,30,29,31,-1,31,29,32,-1,31,32,33,-1,34,35,32,-1,32,35,36,-1,32,36,33,-1,37,38,39,-1,39,38,40,-1,39,40,34,-1,34,40,41,-1,34,41,35,-1,37,39,42,-1,42,39,43,-1,42,43,44,-1,44,43,45,-1,45,43,46,-1,45,46,47,-1,47,46,48,-1,48,46,49,-1,48,49,50,-1,51,52,49,-1,49,52,53,-1,49,53,50,-1,54,55,51,-1,51,55,56,-1,51,56,52,-1,57,58,54,-1,54,58,59,-1,54,59,55,-1,60,61,57,-1,57,61,62,-1,57,62,58,-1,63,64,65,-1,65,64,66,-1,65,66,60,-1,60,66,67,-1,60,67,61,-1,63,65,68,-1,68,65,69,-1,68,69,70,-1,70,69,71,-1,71,69,72,-1,71,72,73,-1,73,72,74,-1,74,72,75,-1,74,75,76,-1,77,78,75,-1,75,78,79,-1,75,79,76,-1,80,81,82,-1,82,81,83,-1,82,83,77,-1,77,83,84,-1,77,84,78,-1,80,82,85,-1,85,82,86,-1,85,86,87,-1,87,86,88,-1,88,86,89,-1,88,89,90,-1,90,89,91,-1,91,89,92,-1,91,92,93,-1,94,95,92,-1,92,95,96,-1,92,96,93,-1,97,98,94,-1,94,98,99,-1,94,99,95,-1,100,101,102,-1,102,101,103,-1,102,103,97,-1,97,103,104,-1,97,104,98,-1,100,102,105,-1,105,102,106,-1,105,106,107,-1,107,106,108,-1,108,106,109,-1,108,109,110,-1,0,111,1,-1,1,111,112,-1,1,112,109,-1,109,112,113,-1,109,113,110,-1,114,115,116,-1,114,116,117,-1,118,119,116,-1,116,119,120,-1,116,120,117,-1,121,122,116,-1,116,122,123,-1,116,123,118,-1,124,125,116,-1,116,125,126,-1,116,126,121,-1,127,128,116,-1,116,128,129,-1,116,129,124,-1,130,131,116,-1,116,131,132,-1,116,132,127,-1,133,134,116,-1,116,134,135,-1,116,135,130,-1,136,137,116,-1,116,137,138,-1,116,138,133,-1,139,140,116,-1,116,140,141,-1,116,141,136,-1,142,143,116,-1,116,143,144,-1,116,144,139,-1,145,146,116,-1,116,146,147,-1,116,147,142,-1,148,149,116,-1,116,149,150,-1,116,150,145,-1,151,152,116,-1,116,152,153,-1,116,153,148,-1,154,155,116,-1,116,155,156,-1,116,156,151,-1,157,158,116,-1,116,158,159,-1,116,159,154,-1,115,160,116,-1,116,160,161,-1,116,161,157,-1,62,61,162,-1,63,68,163,-1,70,71,164,-1,79,78,165,-1,80,85,166,-1,87,88,167,-1,96,95,168,-1,99,98,169,-1,104,103,170,-1,100,105,171,-1,113,112,172,-1,111,0,173,-1,3,8,174,-1,16,15,175,-1,19,18,176,-1,20,25,177,-1,27,28,178,-1,30,31,179,-1,36,35,180,-1,37,42,181,-1,44,45,182,-1,53,52,183,-1,56,55,184,-1,118,123,185,-1,185,123,186,-1,185,186,187,-1,187,186,188,-1,187,188,189,-1,189,188,190,-1,189,190,191,-1,191,190,192,-1,191,192,193,-1,193,192,182,-1,126,125,194,-1,194,125,195,-1,194,195,196,-1,196,195,197,-1,196,197,198,-1,198,197,199,-1,198,199,200,-1,200,199,201,-1,200,201,202,-1,202,201,180,-1,131,130,203,-1,203,130,204,-1,203,204,205,-1,205,204,206,-1,205,206,207,-1,207,206,208,-1,207,208,209,-1,209,208,210,-1,209,210,211,-1,211,210,176,-1,133,138,212,-1,212,138,213,-1,212,213,214,-1,214,213,215,-1,214,215,216,-1,216,215,217,-1,216,217,218,-1,218,217,219,-1,218,219,220,-1,220,219,174,-1,136,141,221,-1,221,141,222,-1,221,222,223,-1,223,222,224,-1,223,224,225,-1,225,224,226,-1,225,226,227,-1,227,226,228,-1,227,228,229,-1,229,228,173,-1,144,143,230,-1,230,143,231,-1,230,231,232,-1,232,231,233,-1,232,233,234,-1,234,233,235,-1,234,235,236,-1,236,235,237,-1,236,237,238,-1,238,237,171,-1,149,148,239,-1,239,148,240,-1,239,240,241,-1,241,240,242,-1,241,242,243,-1,243,242,244,-1,243,244,245,-1,245,244,246,-1,245,246,247,-1,247,246,167,-1,151,156,248,-1,248,156,249,-1,248,249,250,-1,250,249,251,-1,250,251,252,-1,252,251,253,-1,252,253,254,-1,254,253,255,-1,254,255,256,-1,256,255,165,-1,154,159,257,-1,257,159,258,-1,257,258,259,-1,259,258,260,-1,259,260,261,-1,261,260,262,-1,261,262,263,-1,263,262,264,-1,263,264,265,-1,265,264,164,-1,161,160,266,-1,266,160,267,-1,266,267,268,-1,268,267,269,-1,268,269,270,-1,270,269,271,-1,270,271,272,-1,272,271,273,-1,272,273,274,-1,274,273,162,-1,114,117,275,-1,275,117,276,-1,275,276,277,-1,277,276,278,-1,277,278,279,-1,279,278,280,-1,279,280,281,-1,281,280,282,-1,281,282,283,-1,283,282,184,-1,283,184,59,-1,59,184,55,-1,117,120,276,-1,276,120,284,-1,276,284,278,-1,278,284,285,-1,278,285,280,-1,280,285,286,-1,280,286,282,-1,282,286,287,-1,282,287,184,-1,184,287,183,-1,184,183,56,-1,56,183,52,-1,50,53,288,-1,288,53,183,-1,288,183,289,-1,289,183,287,-1,289,287,290,-1,290,287,286,-1,290,286,291,-1,291,286,285,-1,291,285,292,-1,292,285,284,-1,292,284,119,-1,119,284,120,-1,119,118,292,-1,292,118,185,-1,292,185,291,-1,291,185,187,-1,291,187,290,-1,290,187,189,-1,290,189,289,-1,289,189,191,-1,289,191,288,-1,288,191,193,-1,288,193,50,-1,50,193,48,-1,182,45,193,-1,193,45,47,-1,193,47,48,-1,42,44,181,-1,181,44,182,-1,181,182,293,-1,293,182,192,-1,293,192,294,-1,294,192,190,-1,294,190,295,-1,295,190,188,-1,295,188,296,-1,296,188,186,-1,296,186,122,-1,122,186,123,-1,38,37,297,-1,297,37,181,-1,297,181,298,-1,298,181,293,-1,298,293,299,-1,299,293,294,-1,299,294,300,-1,300,294,295,-1,300,295,301,-1,301,295,296,-1,301,296,121,-1,121,296,122,-1,121,126,301,-1,301,126,194,-1,301,194,300,-1,300,194,196,-1,300,196,299,-1,299,196,198,-1,299,198,298,-1,298,198,200,-1,298,200,297,-1,297,200,202,-1,297,202,38,-1,38,202,40,-1,180,35,202,-1,202,35,41,-1,202,41,40,-1,33,36,302,-1,302,36,180,-1,302,180,303,-1,303,180,201,-1,303,201,304,-1,304,201,199,-1,304,199,305,-1,305,199,197,-1,305,197,306,-1,306,197,195,-1,306,195,124,-1,124,195,125,-1,124,129,306,-1,306,129,307,-1,306,307,305,-1,305,307,308,-1,305,308,304,-1,304,308,309,-1,304,309,303,-1,303,309,310,-1,303,310,302,-1,302,310,179,-1,302,179,33,-1,33,179,31,-1,28,30,178,-1,178,30,179,-1,178,179,311,-1,311,179,310,-1,311,310,312,-1,312,310,309,-1,312,309,313,-1,313,309,308,-1,313,308,314,-1,314,308,307,-1,314,307,128,-1,128,307,129,-1,128,127,314,-1,314,127,315,-1,314,315,313,-1,313,315,316,-1,313,316,312,-1,312,316,317,-1,312,317,311,-1,311,317,318,-1,311,318,178,-1,178,318,177,-1,178,177,27,-1,27,177,25,-1,21,20,319,-1,319,20,177,-1,319,177,320,-1,320,177,318,-1,320,318,321,-1,321,318,317,-1,321,317,322,-1,322,317,316,-1,322,316,323,-1,323,316,315,-1,323,315,132,-1,132,315,127,-1,132,131,323,-1,323,131,203,-1,323,203,322,-1,322,203,205,-1,322,205,321,-1,321,205,207,-1,321,207,320,-1,320,207,209,-1,320,209,319,-1,319,209,211,-1,319,211,21,-1,21,211,23,-1,176,18,211,-1,211,18,24,-1,211,24,23,-1,15,19,175,-1,175,19,176,-1,175,176,324,-1,324,176,210,-1,324,210,325,-1,325,210,208,-1,325,208,326,-1,326,208,206,-1,326,206,327,-1,327,206,204,-1,327,204,135,-1,135,204,130,-1,13,16,328,-1,328,16,175,-1,328,175,329,-1,329,175,324,-1,329,324,330,-1,330,324,325,-1,330,325,331,-1,331,325,326,-1,331,326,332,-1,332,326,327,-1,332,327,134,-1,134,327,135,-1,134,133,332,-1,332,133,212,-1,332,212,331,-1,331,212,214,-1,331,214,330,-1,330,214,216,-1,330,216,329,-1,329,216,218,-1,329,218,328,-1,328,218,220,-1,328,220,13,-1,13,220,11,-1,174,8,220,-1,220,8,10,-1,220,10,11,-1,4,3,333,-1,333,3,174,-1,333,174,334,-1,334,174,219,-1,334,219,335,-1,335,219,217,-1,335,217,336,-1,336,217,215,-1,336,215,337,-1,337,215,213,-1,337,213,137,-1,137,213,138,-1,137,136,337,-1,337,136,221,-1,337,221,336,-1,336,221,223,-1,336,223,335,-1,335,223,225,-1,335,225,334,-1,334,225,227,-1,334,227,333,-1,333,227,229,-1,333,229,4,-1,4,229,6,-1,173,0,229,-1,229,0,7,-1,229,7,6,-1,141,140,222,-1,222,140,338,-1,222,338,224,-1,224,338,339,-1,224,339,226,-1,226,339,340,-1,226,340,228,-1,228,340,341,-1,228,341,173,-1,173,341,172,-1,173,172,111,-1,111,172,112,-1,110,113,342,-1,342,113,172,-1,342,172,343,-1,343,172,341,-1,343,341,344,-1,344,341,340,-1,344,340,345,-1,345,340,339,-1,345,339,346,-1,346,339,338,-1,346,338,139,-1,139,338,140,-1,139,144,346,-1,346,144,230,-1,346,230,345,-1,345,230,232,-1,345,232,344,-1,344,232,234,-1,344,234,343,-1,343,234,236,-1,343,236,342,-1,342,236,238,-1,342,238,110,-1,110,238,108,-1,171,105,238,-1,238,105,107,-1,238,107,108,-1,101,100,347,-1,347,100,171,-1,347,171,348,-1,348,171,237,-1,348,237,349,-1,349,237,235,-1,349,235,350,-1,350,235,233,-1,350,233,351,-1,351,233,231,-1,351,231,142,-1,142,231,143,-1,142,147,351,-1,351,147,352,-1,351,352,350,-1,350,352,353,-1,350,353,349,-1,349,353,354,-1,349,354,348,-1,348,354,355,-1,348,355,347,-1,347,355,170,-1,347,170,101,-1,101,170,103,-1,98,104,169,-1,169,104,170,-1,169,170,356,-1,356,170,355,-1,356,355,357,-1,357,355,354,-1,357,354,358,-1,358,354,353,-1,358,353,359,-1,359,353,352,-1,359,352,146,-1,146,352,147,-1,146,145,359,-1,359,145,360,-1,359,360,358,-1,358,360,361,-1,358,361,357,-1,357,361,362,-1,357,362,356,-1,356,362,363,-1,356,363,169,-1,169,363,168,-1,169,168,99,-1,99,168,95,-1,93,96,364,-1,364,96,168,-1,364,168,365,-1,365,168,363,-1,365,363,366,-1,366,363,362,-1,366,362,367,-1,367,362,361,-1,367,361,368,-1,368,361,360,-1,368,360,150,-1,150,360,145,-1,150,149,368,-1,368,149,239,-1,368,239,367,-1,367,239,241,-1,367,241,366,-1,366,241,243,-1,366,243,365,-1,365,243,245,-1,365,245,364,-1,364,245,247,-1,364,247,93,-1,93,247,91,-1,167,88,247,-1,247,88,90,-1,247,90,91,-1,85,87,166,-1,166,87,167,-1,166,167,369,-1,369,167,246,-1,369,246,370,-1,370,246,244,-1,370,244,371,-1,371,244,242,-1,371,242,372,-1,372,242,240,-1,372,240,153,-1,153,240,148,-1,81,80,373,-1,373,80,166,-1,373,166,374,-1,374,166,369,-1,374,369,375,-1,375,369,370,-1,375,370,376,-1,376,370,371,-1,376,371,377,-1,377,371,372,-1,377,372,152,-1,152,372,153,-1,152,151,377,-1,377,151,248,-1,377,248,376,-1,376,248,250,-1,376,250,375,-1,375,250,252,-1,375,252,374,-1,374,252,254,-1,374,254,373,-1,373,254,256,-1,373,256,81,-1,81,256,83,-1,165,78,256,-1,256,78,84,-1,256,84,83,-1,76,79,378,-1,378,79,165,-1,378,165,379,-1,379,165,255,-1,379,255,380,-1,380,255,253,-1,380,253,381,-1,381,253,251,-1,381,251,382,-1,382,251,249,-1,382,249,155,-1,155,249,156,-1,155,154,382,-1,382,154,257,-1,382,257,381,-1,381,257,259,-1,381,259,380,-1,380,259,261,-1,380,261,379,-1,379,261,263,-1,379,263,378,-1,378,263,265,-1,378,265,76,-1,76,265,74,-1,164,71,265,-1,265,71,73,-1,265,73,74,-1,159,158,258,-1,258,158,383,-1,258,383,260,-1,260,383,384,-1,260,384,262,-1,262,384,385,-1,262,385,264,-1,264,385,386,-1,264,386,164,-1,164,386,163,-1,164,163,70,-1,70,163,68,-1,64,63,387,-1,387,63,163,-1,387,163,388,-1,388,163,386,-1,388,386,389,-1,389,386,385,-1,389,385,390,-1,390,385,384,-1,390,384,391,-1,391,384,383,-1,391,383,157,-1,157,383,158,-1,157,161,391,-1,391,161,266,-1,391,266,390,-1,390,266,268,-1,390,268,389,-1,389,268,270,-1,389,270,388,-1,388,270,272,-1,388,272,387,-1,387,272,274,-1,387,274,64,-1,64,274,66,-1,162,61,274,-1,274,61,67,-1,274,67,66,-1,58,62,392,-1,392,62,162,-1,392,162,393,-1,393,162,273,-1,393,273,394,-1,394,273,271,-1,394,271,395,-1,395,271,269,-1,395,269,396,-1,396,269,267,-1,396,267,115,-1,115,267,160,-1,115,114,396,-1,396,114,275,-1,396,275,395,-1,395,275,277,-1,395,277,394,-1,394,277,279,-1,394,279,393,-1,393,279,281,-1,393,281,392,-1,392,281,283,-1,392,283,58,-1,58,283,59,-1,
        ]
    }
}
Shape{
    appearance Appearance {
        material  Material 	{
            diffuseColor 0.7529411764705882 0.7529411764705882 0.7529411764705882
            specularColor 0.3764705882352941 0.3764705882352941 0.3764705882352941
            ambientIntensity 0.7529
            transparency 0.0
            shininess 0.5
        }
    }
    geometry IndexedFaceSet {
        ccw TRUE
        solid FALSE
        coord DEF co Coordinate {
            point [
                -1.2495 1.0236 0.3543, -1.2495 0.748 0.3543, -1.1811 1.0236 0.3543, -1.1811 0.748 0.3543, -1.1811 0.748 0.315, -1.2495 0.748 0.315, -1.1811 1.0236 0.315, -1.2495 1.0236 0.315, -1.7717 1.0236 0.0, -1.7717 1.0236 0.0394, -1.4331 1.0236 0.0, -1.4331 1.0236 0.0394, -1.414 1.0236 0.0023, -1.4236 1.0236 0.0405, -1.3961 1.0236 0.0092, -1.4146 1.0236 0.044, -1.3804 1.0236 0.0202, -1.4067 1.0236 0.0495, -1.3678 1.0236 0.0347, -1.4004 1.0236 0.0567, -1.3591 1.0236 0.0518, -1.3961 1.0236 0.0653, -1.268 1.0236 0.302, -1.305 1.0236 0.3155, -1.2659 1.0236 0.3063, -1.2985 1.0236 0.3283, -1.2627 1.0236 0.3099, -1.289 1.0236 0.3392, -1.2588 1.0236 0.3127, -1.2773 1.0236 0.3474, -1.2543 1.0236 0.3144, -1.2638 1.0236 0.3526, -1.7717 0.748 0.0394, -1.7717 0.748 0.0, -1.4331 0.748 0.0394, -1.4331 0.748 0.0, -1.4236 0.748 0.0405, -1.414 0.748 0.0023, -1.4146 0.748 0.044, -1.3961 0.748 0.0092, -1.4067 0.748 0.0495, -1.3804 0.748 0.0202, -1.4004 0.748 0.0567, -1.3678 0.748 0.0347, -1.3961 0.748 0.0653, -1.3591 0.748 0.0518, -1.305 0.748 0.3155, -1.268 0.748 0.302, -1.2985 0.748 0.3283, -1.2659 0.748 0.3063, -1.289 0.748 0.3392, -1.2627 0.748 0.3099, -1.2773 0.748 0.3474, -1.2588 0.748 0.3127, -1.2638 0.748 0.3526, -1.2543 0.748 0.3144, -1.2495 -1.0236 0.315, -1.2495 -0.748 0.315, -1.1811 -1.0236 0.315, -1.1811 -0.748 0.315, -1.1811 -0.748 0.3543, -1.2495 -0.748 0.3543, -1.1811 -1.0236 0.3543, -1.2495 -1.0236 0.3543, -1.2543 -1.0236 0.3144, -1.2638 -1.0236 0.3526, -1.2588 -1.0236 0.3127, -1.2773 -1.0236 0.3474, -1.2627 -1.0236 0.3099, -1.289 -1.0236 0.3392, -1.2659 -1.0236 0.3063, -1.2985 -1.0236 0.3283, -1.268 -1.0236 0.302, -1.305 -1.0236 0.3155, -1.3591 -1.0236 0.0518, -1.3961 -1.0236 0.0653, -1.3678 -1.0236 0.0347, -1.4004 -1.0236 0.0567, -1.3804 -1.0236 0.0202, -1.4067 -1.0236 0.0495, -1.3961 -1.0236 0.0092, -1.4146 -1.0236 0.044, -1.414 -1.0236 0.0023, -1.4236 -1.0236 0.0405, -1.4331 -1.0236 0.0, -1.4331 -1.0236 0.0394, -1.7717 -1.0236 0.0, -1.7717 -1.0236 0.0394, -1.7717 -0.748 0.0, -1.7717 -0.748 0.0394, -1.4331 -0.748 0.0, -1.4331 -0.748 0.0394, -1.414 -0.748 0.0023, -1.4236 -0.748 0.0405, -1.3961 -0.748 0.0092, -1.4146 -0.748 0.044, -1.3804 -0.748 0.0202, -1.4067 -0.748 0.0495, -1.3678 -0.748 0.0347, -1.4004 -0.748 0.0567, -1.3591 -0.748 0.0518, -1.3961 -0.748 0.0653, -1.268 -0.748 0.302, -1.305 -0.748 0.3155, -1.2659 -0.748 0.3063, -1.2985 -0.748 0.3283, -1.2627 -0.748 0.3099, -1.289 -0.748 0.3392, -1.2588 -0.748 0.3127, -1.2773 -0.748 0.3474, -1.2543 -0.748 0.3144, -1.2638 -0.748 0.3526, 1.2495 -1.0236 0.3543, 1.2495 -0.748 0.3543, 1.1811 -1.0236 0.3543, 1.1811 -0.748 0.3543, 1.1811 -0.748 0.315, 1.2495 -0.748 0.315, 1.1811 -1.0236 0.315, 1.2495 -1.0236 0.315, 1.7717 -1.0236 0.0, 1.7717 -1.0236 0.0394, 1.4331 -1.0236 0.0, 1.4331 -1.0236 0.0394, 1.414 -1.0236 0.0023, 1.4236 -1.0236 0.0405, 1.3961 -1.0236 0.0092, 1.4146 -1.0236 0.044, 1.3804 -1.0236 0.0202, 1.4067 -1.0236 0.0495, 1.3678 -1.0236 0.0347, 1.4004 -1.0236 0.0567, 1.3591 -1.0236 0.0518, 1.3961 -1.0236 0.0653, 1.268 -1.0236 0.302, 1.305 -1.0236 0.3155, 1.2659 -1.0236 0.3063, 1.2985 -1.0236 0.3283, 1.2627 -1.0236 0.3099, 1.289 -1.0236 0.3392, 1.2588 -1.0236 0.3127, 1.2773 -1.0236 0.3474, 1.2543 -1.0236 0.3144, 1.2638 -1.0236 0.3526, 1.7717 -0.748 0.0394, 1.7717 -0.748 0.0, 1.4331 -0.748 0.0394, 1.4331 -0.748 0.0, 1.4236 -0.748 0.0405, 1.414 -0.748 0.0023, 1.4146 -0.748 0.044, 1.3961 -0.748 0.0092, 1.4067 -0.748 0.0495, 1.3804 -0.748 0.0202, 1.4004 -0.748 0.0567, 1.3678 -0.748 0.0347, 1.3961 -0.748 0.0653, 1.3591 -0.748 0.0518, 1.305 -0.748 0.3155, 1.268 -0.748 0.302, 1.2985 -0.748 0.3283, 1.2659 -0.748 0.3063, 1.289 -0.748 0.3392, 1.2627 -0.748 0.3099, 1.2773 -0.748 0.3474, 1.2588 -0.748 0.3127, 1.2638 -0.748 0.3526, 1.2543 -0.748 0.3144, 1.2495 1.0236 0.315, 1.2495 0.748 0.315, 1.1811 1.0236 0.315, 1.1811 0.748 0.315, 1.1811 0.748 0.3543, 1.2495 0.748 0.3543, 1.1811 1.0236 0.3543, 1.2495 1.0236 0.3543, 1.2543 1.0236 0.3144, 1.2638 1.0236 0.3526, 1.2588 1.0236 0.3127, 1.2773 1.0236 0.3474, 1.2627 1.0236 0.3099, 1.289 1.0236 0.3392, 1.2659 1.0236 0.3063, 1.2985 1.0236 0.3283, 1.268 1.0236 0.302, 1.305 1.0236 0.3155, 1.3591 1.0236 0.0518, 1.3961 1.0236 0.0653, 1.3678 1.0236 0.0347, 1.4004 1.0236 0.0567, 1.3804 1.0236 0.0202, 1.4067 1.0236 0.0495, 1.3961 1.0236 0.0092, 1.4146 1.0236 0.044, 1.414 1.0236 0.0023, 1.4236 1.0236 0.0405, 1.4331 1.0236 0.0, 1.4331 1.0236 0.0394, 1.7717 1.0236 0.0, 1.7717 1.0236 0.0394, 1.7717 0.748 0.0, 1.7717 0.748 0.0394, 1.4331 0.748 0.0, 1.4331 0.748 0.0394, 1.414 0.748 0.0023, 1.4236 0.748 0.0405, 1.3961 0.748 0.0092, 1.4146 0.748 0.044, 1.3804 0.748 0.0202, 1.4067 0.748 0.0495, 1.3678 0.748 0.0347, 1.4004 0.748 0.0567, 1.3591 0.748 0.0518, 1.3961 0.748 0.0653, 1.268 0.748 0.302, 1.305 0.748 0.3155, 1.2659 0.748 0.3063, 1.2985 0.748 0.3283, 1.2627 0.748 0.3099, 1.289 0.748 0.3392, 1.2588 0.748 0.3127, 1.2773 0.748 0.3474, 1.2543 0.748 0.3144, 1.2638 0.748 0.3526
            ]
        }
        coordIndex [
            0,1,2,-1,2,1,3,-1,4,5,6,-1,6,5,7,-1,8,9,10,-1,10,9,11,-1,10,11,12,-1,12,11,13,-1,12,13,14,-1,14,13,15,-1,14,15,16,-1,16,15,17,-1,16,17,18,-1,18,17,19,-1,18,19,20,-1,20,19,21,-1,20,21,22,-1,22,21,23,-1,22,23,24,-1,24,23,25,-1,24,25,26,-1,26,25,27,-1,26,27,28,-1,28,27,29,-1,28,29,30,-1,30,29,31,-1,30,31,7,-1,7,31,0,-1,7,0,6,-1,6,0,2,-1,32,33,34,-1,34,33,35,-1,34,35,36,-1,36,35,37,-1,36,37,38,-1,38,37,39,-1,38,39,40,-1,40,39,41,-1,40,41,42,-1,42,41,43,-1,42,43,44,-1,44,43,45,-1,44,45,46,-1,46,45,47,-1,46,47,48,-1,48,47,49,-1,48,49,50,-1,50,49,51,-1,50,51,52,-1,52,51,53,-1,52,53,54,-1,54,53,55,-1,54,55,1,-1,1,55,5,-1,1,5,3,-1,3,5,4,-1,8,10,33,-1,33,10,35,-1,9,8,32,-1,32,8,33,-1,11,9,34,-1,34,9,32,-1,11,34,13,-1,13,34,36,-1,13,36,15,-1,15,36,38,-1,15,38,17,-1,17,38,40,-1,17,40,19,-1,19,40,42,-1,19,42,21,-1,21,42,44,-1,23,21,46,-1,46,21,44,-1,23,46,48,-1,23,48,25,-1,25,48,50,-1,25,50,27,-1,27,50,52,-1,27,52,29,-1,29,52,54,-1,29,54,31,-1,31,54,1,-1,31,1,0,-1,7,5,30,-1,30,5,55,-1,30,55,28,-1,28,55,53,-1,28,53,26,-1,26,53,51,-1,26,51,24,-1,24,51,49,-1,24,49,22,-1,22,49,47,-1,20,22,45,-1,45,22,47,-1,20,45,43,-1,20,43,18,-1,18,43,41,-1,18,41,16,-1,16,41,39,-1,16,39,14,-1,14,39,37,-1,14,37,12,-1,12,37,35,-1,12,35,10,-1,56,57,58,-1,58,57,59,-1,60,61,62,-1,62,61,63,-1,58,62,56,-1,56,62,63,-1,56,63,64,-1,64,63,65,-1,64,65,66,-1,66,65,67,-1,66,67,68,-1,68,67,69,-1,68,69,70,-1,70,69,71,-1,70,71,72,-1,72,71,73,-1,72,73,74,-1,74,73,75,-1,74,75,76,-1,76,75,77,-1,76,77,78,-1,78,77,79,-1,78,79,80,-1,80,79,81,-1,80,81,82,-1,82,81,83,-1,82,83,84,-1,84,83,85,-1,84,85,86,-1,86,85,87,-1,88,89,90,-1,90,89,91,-1,90,91,92,-1,92,91,93,-1,92,93,94,-1,94,93,95,-1,94,95,96,-1,96,95,97,-1,96,97,98,-1,98,97,99,-1,98,99,100,-1,100,99,101,-1,100,101,102,-1,102,101,103,-1,102,103,104,-1,104,103,105,-1,104,105,106,-1,106,105,107,-1,106,107,108,-1,108,107,109,-1,108,109,110,-1,110,109,111,-1,110,111,57,-1,57,111,61,-1,57,61,59,-1,59,61,60,-1,84,86,90,-1,90,86,88,-1,84,90,92,-1,84,92,82,-1,82,92,94,-1,82,94,80,-1,80,94,96,-1,80,96,78,-1,78,96,98,-1,78,98,76,-1,76,98,100,-1,76,100,74,-1,72,74,102,-1,102,74,100,-1,72,102,70,-1,70,102,104,-1,70,104,68,-1,68,104,106,-1,68,106,66,-1,66,106,108,-1,66,108,64,-1,64,108,110,-1,64,110,56,-1,56,110,57,-1,63,61,111,-1,63,111,65,-1,65,111,109,-1,65,109,67,-1,67,109,107,-1,67,107,69,-1,69,107,105,-1,69,105,71,-1,71,105,103,-1,71,103,73,-1,75,73,101,-1,101,73,103,-1,75,101,77,-1,77,101,99,-1,77,99,79,-1,79,99,97,-1,79,97,81,-1,81,97,95,-1,81,95,83,-1,83,95,93,-1,83,93,85,-1,85,93,91,-1,87,85,89,-1,89,85,91,-1,86,87,88,-1,88,87,89,-1,112,113,114,-1,114,113,115,-1,116,117,118,-1,118,117,119,-1,120,121,122,-1,122,121,123,-1,122,123,124,-1,124,123,125,-1,124,125,126,-1,126,125,127,-1,126,127,128,-1,128,127,129,-1,128,129,130,-1,130,129,131,-1,130,131,132,-1,132,131,133,-1,132,133,134,-1,134,133,135,-1,134,135,136,-1,136,135,137,-1,136,137,138,-1,138,137,139,-1,138,139,140,-1,140,139,141,-1,140,141,142,-1,142,141,143,-1,142,143,119,-1,119,143,112,-1,119,112,118,-1,118,112,114,-1,144,145,146,-1,146,145,147,-1,146,147,148,-1,148,147,149,-1,148,149,150,-1,150,149,151,-1,150,151,152,-1,152,151,153,-1,152,153,154,-1,154,153,155,-1,154,155,156,-1,156,155,157,-1,156,157,158,-1,158,157,159,-1,158,159,160,-1,160,159,161,-1,160,161,162,-1,162,161,163,-1,162,163,164,-1,164,163,165,-1,164,165,166,-1,166,165,167,-1,166,167,113,-1,113,167,117,-1,113,117,115,-1,115,117,116,-1,120,122,145,-1,145,122,147,-1,121,120,144,-1,144,120,145,-1,123,121,146,-1,146,121,144,-1,123,146,125,-1,125,146,148,-1,125,148,127,-1,127,148,150,-1,127,150,129,-1,129,150,152,-1,129,152,131,-1,131,152,154,-1,131,154,133,-1,133,154,156,-1,135,133,158,-1,158,133,156,-1,135,158,160,-1,135,160,137,-1,137,160,162,-1,137,162,139,-1,139,162,164,-1,139,164,141,-1,141,164,166,-1,141,166,143,-1,143,166,113,-1,143,113,112,-1,119,117,142,-1,142,117,167,-1,142,167,140,-1,140,167,165,-1,140,165,138,-1,138,165,163,-1,138,163,136,-1,136,163,161,-1,136,161,134,-1,134,161,159,-1,132,134,157,-1,157,134,159,-1,132,157,155,-1,132,155,130,-1,130,155,153,-1,130,153,128,-1,128,153,151,-1,128,151,126,-1,126,151,149,-1,126,149,124,-1,124,149,147,-1,124,147,122,-1,168,169,170,-1,170,169,171,-1,172,173,174,-1,174,173,175,-1,170,174,168,-1,168,174,175,-1,168,175,176,-1,176,175,177,-1,176,177,178,-1,178,177,179,-1,178,179,180,-1,180,179,181,-1,180,181,182,-1,182,181,183,-1,182,183,184,-1,184,183,185,-1,184,185,186,-1,186,185,187,-1,186,187,188,-1,188,187,189,-1,188,189,190,-1,190,189,191,-1,190,191,192,-1,192,191,193,-1,192,193,194,-1,194,193,195,-1,194,195,196,-1,196,195,197,-1,196,197,198,-1,198,197,199,-1,200,201,202,-1,202,201,203,-1,202,203,204,-1,204,203,205,-1,204,205,206,-1,206,205,207,-1,206,207,208,-1,208,207,209,-1,208,209,210,-1,210,209,211,-1,210,211,212,-1,212,211,213,-1,212,213,214,-1,214,213,215,-1,214,215,216,-1,216,215,217,-1,216,217,218,-1,218,217,219,-1,218,219,220,-1,220,219,221,-1,220,221,222,-1,222,221,223,-1,222,223,169,-1,169,223,173,-1,169,173,171,-1,171,173,172,-1,196,198,202,-1,202,198,200,-1,196,202,204,-1,196,204,194,-1,194,204,206,-1,194,206,192,-1,192,206,208,-1,192,208,190,-1,190,208,210,-1,190,210,188,-1,188,210,212,-1,188,212,186,-1,184,186,214,-1,214,186,212,-1,184,214,182,-1,182,214,216,-1,182,216,180,-1,180,216,218,-1,180,218,178,-1,178,218,220,-1,178,220,176,-1,176,220,222,-1,176,222,168,-1,168,222,169,-1,175,173,223,-1,175,223,177,-1,177,223,221,-1,177,221,179,-1,179,221,219,-1,179,219,181,-1,181,219,217,-1,181,217,183,-1,183,217,215,-1,183,215,185,-1,187,185,213,-1,213,185,215,-1,187,213,189,-1,189,213,211,-1,189,211,191,-1,191,211,209,-1,191,209,193,-1,193,209,207,-1,193,207,195,-1,195,207,205,-1,195,205,197,-1,197,205,203,-1,199,197,201,-1,201,197,203,-1,198,199,200,-1,200,199,201,-1,
        ]
    }
}
Shape{
    appearance Appearance {
        material  Material 	{
            diffuseColor 0.2235294117647059 0.2235294117647059 0.2235294117647059
            specularColor 0.11372549019607843 0.11372549019607843 0.11372549019607843
            ambientIntensity 0.2235
            transparency 0.0
            shininess 0.5
        }
    }
    geometry IndexedFaceSet {
        ccw TRUE
        solid FALSE
        coord DEF co Coordinate {
            point [
                -0.4907 1.2992 0.7259, -0.4907 1.2992 0.0197, -0.4907 1.2598 0.7259, -0.4907 1.2598 0.0197, 0.4907 1.2992 0.7259, 0.4907 1.2598 0.7259, 0.4907 1.2992 0.0197, 0.4907 1.2598 0.0197, -0.1784 1.2992 0.0197, -0.4907 -1.2992 0.0197, -0.4907 -1.2992 0.7259, -0.4907 -1.2598 0.0197, -0.4907 -1.2598 0.7259, 0.4907 -1.2992 0.7259, 0.4907 -1.2992 0.0197, 0.4907 -1.2598 0.7259, 0.4907 -1.2598 0.0197, -0.1784 -1.2992 0.0197
            ]
        }
        coordIndex [
            0,1,2,-1,2,1,3,-1,4,0,5,-1,5,0,2,-1,6,4,7,-1,7,4,5,-1,1,0,8,-1,8,0,4,-1,8,4,6,-1,9,10,11,-1,11,10,12,-1,13,14,15,-1,15,14,16,-1,10,13,12,-1,12,13,15,-1,14,13,17,-1,17,13,10,-1,17,10,9,-1,
        ]
    }
}
Shape{
    appearance Appearance {
        material  Material 	{
            diffuseColor 0.7529411764705882 0.7529411764705882 0.7529411764705882
            specularColor 0.3764705882352941 0.3764705882352941 0.3764705882352941
            ambientIntensity 0.7529
            transparency 0.0
            shininess 0.5
        }
    }
    geometry IndexedFaceSet {
        ccw TRUE
        solid FALSE
        coord DEF co Coordinate {
            point [
                -0.6577 -0.0786 0.0197, -0.6577 -0.0786 0.0236, -0.6201 -0.189 0.0197, -0.6201 -0.189 0.0236, -0.8203 -0.0786 0.0197, -0.8203 -0.0786 0.0236, -0.8602 -0.189 0.0197, -0.8602 -0.189 0.0236, -0.9178 -0.189 0.0197, -0.9178 -0.189 0.0236, -0.7641 0.2047 0.0197, -0.7641 0.2047 0.0236, -0.7113 0.2047 0.0197, -0.7113 0.2047 0.0236, -0.5625 -0.189 0.0197, -0.5625 -0.189 0.0236, -0.671 -0.0354 0.0236, -0.7297 0.1291 0.0236, -0.7399 0.1429 0.0236, -0.736 0.1567 0.0236, -0.7335 0.1427 0.0236, -0.8026 -0.0354 0.0236, -0.7433 0.1291 0.0236, -0.671 -0.0354 0.0197, -0.7297 0.1291 0.0197, -0.8026 -0.0354 0.0197, -0.7433 0.1291 0.0197, -0.7399 0.1429 0.0197, -0.736 0.1567 0.0197, -0.7335 0.1427 0.0197, -0.2168 -0.189 0.0197, -0.2168 -0.189 0.0236, -0.2168 0.2047 0.0197, -0.2168 0.2047 0.0236, -0.3238 -0.189 0.0197, -0.3238 -0.189 0.0236, -0.5337 0.0128 0.0197, -0.5337 0.0128 0.0236, -0.5279 -0.0371 0.0236, -0.5279 -0.0371 0.0197, -0.516 -0.077 0.0236, -0.516 -0.077 0.0197, -0.4958 -0.1108 0.0236, -0.4958 -0.1108 0.0197, -0.4616 -0.1455 0.0236, -0.4616 -0.1455 0.0197, -0.4206 -0.1703 0.0236, -0.4206 -0.1703 0.0197, -0.3774 -0.1831 0.0236, -0.3774 -0.1831 0.0197, -0.3279 0.2047 0.0197, -0.3279 0.2047 0.0236, -0.3744 0.1999 0.0236, -0.3744 0.1999 0.0197, -0.4191 0.1879 0.0236, -0.4191 0.1879 0.0197, -0.4605 0.1645 0.0236, -0.4605 0.1645 0.0197, -0.4946 0.1321 0.0236, -0.4946 0.1321 0.0197, -0.5158 0.099 0.0236, -0.5158 0.099 0.0197, -0.5274 0.0633 0.0236, -0.5274 0.0633 0.0197, -0.3255 -0.1458 0.0236, -0.3777 -0.1386 0.0236, -0.4055 -0.1291 0.0236, -0.4293 -0.1138 0.0236, -0.45 -0.0926 0.0236, -0.4653 -0.0674 0.0236, -0.4755 -0.0336 0.0236, -0.4809 0.0117 0.0236, -0.4761 0.0536 0.0236, -0.4669 0.0852 0.0236, -0.4537 0.1074 0.0236, -0.4316 0.1297 0.0236, -0.4063 0.1454 0.0236, -0.3728 0.1558 0.0236, -0.3277 0.1615 0.0236, -0.2696 0.1615 0.0236, -0.2696 -0.1458 0.0236, -0.4809 0.0117 0.0197, -0.4761 0.0536 0.0197, -0.4669 0.0852 0.0197, -0.4537 0.1074 0.0197, -0.4316 0.1297 0.0197, -0.4063 0.1454 0.0197, -0.3728 0.1558 0.0197, -0.3277 0.1615 0.0197, -0.2696 0.1615 0.0197, -0.2696 -0.1458 0.0197, -0.3255 -0.1458 0.0197, -0.3777 -0.1386 0.0197, -0.4055 -0.1291 0.0197, -0.4293 -0.1138 0.0197, -0.45 -0.0926 0.0197, -0.4653 -0.0674 0.0197, -0.4755 -0.0336 0.0197, -0.1208 0.0318 0.0197, -0.1208 0.0318 0.0236, -0.1208 -0.0114 0.0197, -0.1208 -0.0114 0.0236, 0.0185 0.0318 0.0197, 0.0185 0.0318 0.0236, 0.0185 0.1615 0.0197, 0.0185 0.1615 0.0236, -0.1304 0.1615 0.0197, -0.1304 0.1615 0.0236, -0.1304 0.2047 0.0197, -0.1304 0.2047 0.0236, 0.0713 0.2047 0.0197, 0.0713 0.2047 0.0236, 0.0713 -0.189 0.0197, 0.0713 -0.189 0.0236, -0.14 -0.189 0.0197, -0.14 -0.189 0.0236, -0.14 -0.1458 0.0197, -0.14 -0.1458 0.0236, 0.0185 -0.1458 0.0197, 0.0185 -0.1458 0.0236, 0.0185 -0.0114 0.0197, 0.0185 -0.0114 0.0236, 0.1481 0.1411 0.0197, 0.1481 0.1411 0.0236, 0.1926 0.16 0.0236, 0.1926 0.16 0.0197, 0.2403 0.1663 0.0236, 0.2403 0.1663 0.0197, 0.1481 0.1939 0.0197, 0.1481 0.1939 0.0236, 0.2408 0.2095 0.0197, 0.2408 0.2095 0.0236, 0.1936 0.2063 0.0236, 0.1936 0.2063 0.0197, 0.441 0.0004 0.0197, 0.441 0.0004 0.0236, 0.4357 0.0507 0.0236, 0.4357 0.0507 0.0197, 0.4233 0.0944 0.0236, 0.4233 0.0944 0.0197, 0.4016 0.1319 0.0236, 0.4016 0.1319 0.0197, 0.3679 0.1673 0.0236, 0.3679 0.1673 0.0197, 0.3316 0.1903 0.0236, 0.3316 0.1903 0.0197, 0.2927 0.2029 0.0236, 0.2927 0.2029 0.0197, 0.2564 -0.1938 0.0197, 0.2564 -0.1938 0.0236, 0.2772 -0.1914 0.0197, 0.3027 -0.1885 0.0236, 0.3027 -0.1885 0.0197, 0.3391 -0.1776 0.0236, 0.3391 -0.1776 0.0197, 0.3702 -0.1591 0.0236, 0.3702 -0.1591 0.0197, 0.4007 -0.1291 0.0236, 0.4007 -0.1291 0.0197, 0.4237 -0.0909 0.0236, 0.4237 -0.0909 0.0197, 0.4356 -0.0508 0.0236, 0.4356 -0.0508 0.0197, 0.2007 -0.1882 0.0197, 0.1481 -0.1686 0.0197, 0.2007 -0.1882 0.0236, 0.1481 -0.1686 0.0236, 0.2325 -0.1914 0.0197, 0.1481 -0.1254 0.0197, 0.1481 -0.1254 0.0236, 0.2492 -0.1506 0.0197, 0.2492 -0.1506 0.0236, 0.1968 -0.1448 0.0236, 0.1968 -0.1448 0.0197, 0.3882 0.0036 0.0197, 0.3882 0.0036 0.0236, 0.3852 -0.0267 0.0236, 0.3852 -0.0267 0.0197, 0.3758 -0.0671 0.0236, 0.3758 -0.0671 0.0197, 0.3616 -0.0946 0.0236, 0.3616 -0.0946 0.0197, 0.3419 -0.1174 0.0236, 0.3419 -0.1174 0.0197, 0.3211 -0.1322 0.0236, 0.3211 -0.1322 0.0197, 0.2896 -0.1438 0.0236, 0.2896 -0.1438 0.0197, 0.2759 0.1606 0.0236, 0.2759 0.1606 0.0197, 0.3107 0.1496 0.0236, 0.3107 0.1496 0.0197, 0.3334 0.1356 0.0236, 0.3334 0.1356 0.0197, 0.3558 0.1127 0.0236, 0.3558 0.1127 0.0197, 0.3721 0.0851 0.0236, 0.3721 0.0851 0.0197, 0.3826 0.0504 0.0236, 0.3826 0.0504 0.0197, 0.6762 -0.189 0.0197, 0.6762 -0.189 0.0236, 0.6762 0.2047 0.0197, 0.6762 0.2047 0.0236, 0.4746 -0.189 0.0197, 0.4746 -0.189 0.0236, 0.4746 -0.1458 0.0197, 0.4746 -0.1458 0.0236, 0.6234 -0.1458 0.0197, 0.6234 -0.1458 0.0236, 0.6234 0.2047 0.0197, 0.6234 0.2047 0.0236
            ]
        }
        coordIndex [
            0,1,2,-1,2,1,3,-1,4,5,0,-1,0,5,1,-1,6,7,4,-1,4,7,5,-1,8,9,6,-1,6,9,7,-1,10,11,8,-1,8,11,9,-1,12,13,10,-1,10,13,11,-1,14,15,12,-1,12,15,13,-1,14,2,15,-1,15,2,3,-1,16,17,13,-1,15,3,1,-1,18,11,19,-1,19,11,13,-1,19,13,20,-1,20,13,17,-1,13,15,16,-1,16,15,1,-1,16,1,21,-1,21,1,5,-1,18,22,11,-1,11,22,21,-1,11,21,9,-1,9,21,5,-1,9,5,7,-1,16,23,17,-1,17,23,24,-1,21,25,16,-1,16,25,23,-1,22,26,21,-1,21,26,25,-1,26,22,18,-1,26,18,27,-1,27,18,19,-1,27,19,28,-1,28,19,20,-1,28,20,29,-1,29,20,17,-1,29,17,24,-1,30,31,32,-1,32,31,33,-1,34,35,30,-1,30,35,31,-1,36,37,38,-1,36,38,39,-1,39,38,40,-1,39,40,41,-1,41,40,42,-1,41,42,43,-1,43,42,44,-1,43,44,45,-1,45,44,46,-1,45,46,47,-1,47,46,48,-1,47,48,49,-1,49,48,35,-1,49,35,34,-1,50,51,52,-1,50,52,53,-1,53,52,54,-1,53,54,55,-1,55,54,56,-1,55,56,57,-1,57,56,58,-1,57,58,59,-1,59,58,60,-1,59,60,61,-1,61,60,62,-1,61,62,63,-1,63,62,37,-1,63,37,36,-1,50,32,51,-1,51,32,33,-1,64,35,65,-1,65,35,48,-1,65,48,66,-1,66,48,46,-1,66,46,67,-1,67,46,44,-1,67,44,68,-1,68,44,42,-1,68,42,69,-1,69,42,40,-1,69,40,70,-1,70,40,38,-1,70,38,71,-1,71,38,37,-1,71,37,72,-1,72,37,62,-1,72,62,73,-1,73,62,60,-1,73,60,74,-1,74,60,58,-1,74,58,75,-1,75,58,56,-1,75,56,76,-1,76,56,54,-1,76,54,77,-1,77,54,52,-1,77,52,78,-1,78,52,51,-1,78,51,79,-1,79,51,33,-1,79,33,80,-1,80,33,31,-1,80,31,64,-1,64,31,35,-1,81,71,72,-1,81,72,82,-1,82,72,73,-1,82,73,83,-1,83,73,74,-1,83,74,84,-1,84,74,75,-1,84,75,85,-1,85,75,76,-1,85,76,86,-1,86,76,77,-1,86,77,87,-1,87,77,78,-1,87,78,88,-1,79,89,78,-1,78,89,88,-1,80,90,79,-1,79,90,89,-1,64,91,80,-1,80,91,90,-1,91,64,65,-1,91,65,92,-1,92,65,66,-1,92,66,93,-1,93,66,67,-1,93,67,94,-1,94,67,68,-1,94,68,95,-1,95,68,69,-1,95,69,96,-1,96,69,70,-1,96,70,97,-1,97,70,71,-1,97,71,81,-1,98,99,100,-1,100,99,101,-1,102,103,98,-1,98,103,99,-1,104,105,102,-1,102,105,103,-1,106,107,104,-1,104,107,105,-1,108,109,106,-1,106,109,107,-1,110,111,108,-1,108,111,109,-1,112,113,110,-1,110,113,111,-1,114,115,112,-1,112,115,113,-1,116,117,114,-1,114,117,115,-1,118,119,116,-1,116,119,117,-1,120,121,118,-1,118,121,119,-1,120,100,121,-1,121,100,101,-1,113,115,117,-1,117,119,113,-1,113,119,121,-1,113,121,111,-1,107,109,105,-1,105,109,111,-1,105,111,103,-1,103,111,121,-1,103,121,99,-1,99,121,101,-1,122,123,124,-1,122,124,125,-1,125,124,126,-1,125,126,127,-1,128,129,122,-1,122,129,123,-1,130,131,132,-1,130,132,133,-1,133,132,129,-1,133,129,128,-1,134,135,136,-1,134,136,137,-1,137,136,138,-1,137,138,139,-1,139,138,140,-1,139,140,141,-1,141,140,142,-1,141,142,143,-1,143,142,144,-1,143,144,145,-1,145,144,146,-1,145,146,147,-1,147,146,131,-1,147,131,130,-1,148,149,150,-1,150,149,151,-1,150,151,152,-1,152,151,153,-1,152,153,154,-1,154,153,155,-1,154,155,156,-1,156,155,157,-1,156,157,158,-1,158,157,159,-1,158,159,160,-1,160,159,161,-1,160,161,162,-1,162,161,135,-1,162,135,134,-1,163,164,165,-1,165,164,166,-1,163,165,167,-1,167,165,149,-1,167,149,148,-1,168,169,164,-1,164,169,166,-1,170,171,172,-1,170,172,173,-1,173,172,169,-1,173,169,168,-1,174,175,176,-1,174,176,177,-1,177,176,178,-1,177,178,179,-1,179,178,180,-1,179,180,181,-1,181,180,182,-1,181,182,183,-1,183,182,184,-1,183,184,185,-1,185,184,186,-1,185,186,187,-1,187,186,171,-1,187,171,170,-1,127,126,188,-1,127,188,189,-1,189,188,190,-1,189,190,191,-1,191,190,192,-1,191,192,193,-1,193,192,194,-1,193,194,195,-1,195,194,196,-1,195,196,197,-1,197,196,198,-1,197,198,199,-1,199,198,175,-1,199,175,174,-1,123,129,124,-1,124,129,132,-1,124,132,126,-1,126,132,131,-1,126,131,188,-1,188,131,146,-1,188,146,190,-1,190,146,144,-1,190,144,192,-1,192,144,142,-1,192,142,194,-1,194,142,140,-1,194,140,196,-1,196,140,138,-1,196,138,198,-1,198,138,136,-1,198,136,175,-1,175,136,135,-1,175,135,176,-1,176,135,161,-1,176,161,178,-1,178,161,159,-1,178,159,180,-1,180,159,157,-1,180,157,182,-1,182,157,155,-1,182,155,184,-1,184,155,153,-1,184,153,186,-1,186,153,151,-1,186,151,171,-1,171,151,149,-1,171,149,172,-1,172,149,165,-1,172,165,169,-1,169,165,166,-1,200,201,202,-1,202,201,203,-1,204,205,200,-1,200,205,201,-1,206,207,204,-1,204,207,205,-1,208,209,206,-1,206,209,207,-1,210,211,208,-1,208,211,209,-1,210,202,211,-1,211,202,203,-1,211,203,209,-1,209,203,201,-1,209,201,207,-1,207,201,205,-1,
        ]
    }
}
Shape{
    appearance Appearance {
        material  Material 	{
            diffuseColor 0.2235294117647059 0.2235294117647059 0.2235294117647059
            specularColor 0.11372549019607843 0.11372549019607843 0.11372549019607843
            ambientIntensity 0.2235
            transparency 0.0
            shininess 0.5
        }
    }
    geometry IndexedFaceSet {
        ccw TRUE
        solid FALSE
        coord DEF co Coordinate {
            point [
                -0.671 -0.0354 0.0197, -0.8026 -0.0354 0.0197, -0.7297 0.1291 0.0197, -0.7433 0.1291 0.0197, -0.7335 0.1427 0.0197, -0.7399 0.1429 0.0197, -0.736 0.1567 0.0197, -0.4809 0.0117 0.0197, -0.4761 0.0536 0.0197, -0.3255 -0.1458 0.0197, -0.2696 0.1615 0.0197, -0.2696 -0.1458 0.0197, -0.3277 0.1615 0.0197, -0.4316 0.1297 0.0197, -0.4063 0.1454 0.0197, -0.3728 0.1558 0.0197, -0.4755 -0.0336 0.0197, -0.3777 -0.1386 0.0197, -0.4055 -0.1291 0.0197, -0.4293 -0.1138 0.0197, -0.45 -0.0926 0.0197, -0.4653 -0.0674 0.0197, -0.4669 0.0852 0.0197, -0.4537 0.1074 0.0197
            ]
        }
        coordIndex [
            0,1,2,-1,2,1,3,-1,2,3,4,-1,4,3,5,-1,4,5,6,-1,7,8,9,-1,10,11,12,-1,12,11,9,-1,13,14,9,-1,9,14,15,-1,9,15,12,-1,7,9,16,-1,16,9,17,-1,16,17,18,-1,18,19,16,-1,16,19,20,-1,16,20,21,-1,8,22,9,-1,9,22,23,-1,9,23,13,-1,
        ]
    }
}